<?xml version="1.0" standalone="no"?>
<!DOCTYPE svg PUBLIC "-//W3C//DTD SVG 20010904//EN"
 "http://www.w3.org/TR/2001/REC-SVG-20010904/DTD/svg10.dtd">
<svg version="1.0" xmlns="http://www.w3.org/2000/svg"
 width="341.000000pt" height="341.000000pt" viewBox="0 0 341.000000 341.000000"
 preserveAspectRatio="xMidYMid meet">
<metadata>
Created by potrace 1.11, written by Peter Selinger 2001-2013
</metadata>
<g transform="translate(0.000000,341.000000) scale(0.100000,-0.100000)"
fill="#000000" stroke="none">
<path d="M140 3247 c0 -2 40 -137 130 -437 15 -52 40 -135 55 -185 14 -49 42
-142 61 -205 l35 -115 -43 -87 -42 -87 -36 5 c-19 3 -66 12 -105 20 -38 9 -90
17 -115 20 -41 4 -32 -2 93 -63 75 -37 137 -71 137 -76 0 -5 -17 -6 -37 -3
-21 3 -60 8 -88 11 l-50 5 77 -37 c43 -20 78 -41 78 -45 0 -5 -51 -9 -112 -8
-62 1 -122 1 -132 1 -11 -1 36 -29 104 -63 l123 -63 2 -105 c8 -298 135 -567
376 -795 74 -70 220 -174 289 -206 63 -30 68 -37 75 -129 3 -47 8 -98 10 -115
2 -16 7 -66 10 -110 6 -86 17 -209 19 -211 0 -1 121 58 269 132 185 92 267
129 267 118 0 -30 30 -72 57 -81 15 -5 62 -8 103 -7 67 2 77 5 97 29 13 14 23
35 23 46 0 10 3 19 8 19 4 0 124 -58 267 -129 143 -70 261 -128 262 -127 2 1
12 98 18 181 3 39 7 93 10 120 2 28 7 82 10 120 9 108 15 140 27 144 6 2 59
35 117 74 345 231 555 606 545 973 l-2 61 125 59 124 59 -138 5 -138 5 85 42
85 43 -55 -5 c-30 -3 -70 -8 -87 -11 -64 -12 -31 12 112 80 80 38 144 71 142
72 -2 2 -150 -25 -250 -46 -27 -5 -53 -10 -58 -10 -17 0 -61 111 -54 134 3 12
10 35 15 51 5 17 18 62 30 100 12 39 32 106 45 150 20 70 62 210 174 580 16
55 29 101 27 102 -1 2 -142 -76 -312 -173 -342 -194 -396 -225 -469 -265 l-50
-27 -90 43 c-284 136 -585 182 -910 139 -205 -27 -332 -62 -455 -125 -42 -22
-80 -39 -85 -39 -6 0 -73 36 -149 80 -76 44 -141 80 -143 80 -2 0 -20 11 -41
23 -35 22 -64 39 -179 103 -27 15 -93 53 -148 84 -117 67 -145 82 -145 77z"/>
</g>
</svg>
