<?xml version="1.0" encoding="UTF-8" standalone="no"?><!DOCTYPE svg PUBLIC "-//W3C//DTD SVG 1.1//EN" "http://www.w3.org/Graphics/SVG/1.1/DTD/svg11.dtd"><svg width="100%" height="100%" viewBox="0 0 225 103" version="1.1" xmlns="http://www.w3.org/2000/svg" xmlns:xlink="http://www.w3.org/1999/xlink" xml:space="preserve" style="fill-rule:evenodd;clip-rule:evenodd;stroke-linecap:round;stroke-linejoin:round;stroke-miterlimit:1.5;"><g id="logo-2rad-blue"><g transform="matrix(0.106231,0,0,0.106231,-156.754,-110.088)"><path d="M1841.88,1185.91l-60.266,4.8c-2.489,-13.867 -7.111,-25.423 -13.867,-34.667c-6.756,-9.245 -15.2,-16.622 -25.333,-22.133c-10.134,-5.512 -21.867,-9.512 -35.2,-12c-13.334,-2.489 -27.645,-3.734 -42.934,-3.734c-8.177,0 -15.822,0.445 -22.933,1.334c-7.111,0.888 -13.333,2.488 -18.667,4.8c-5.333,2.311 -9.6,5.6 -12.8,9.866c-3.2,4.267 -4.8,9.6 -4.8,16c0,9.956 5.511,17.511 16.534,22.667c11.022,5.155 25.066,9.511 42.133,13.067c17.067,3.555 36,7.111 56.8,10.666c20.8,3.556 40.978,8.711 60.533,15.467c28.089,9.6 49.334,23.911 63.734,42.933c14.4,19.022 21.6,44.534 21.6,76.534c0,20.977 -3.823,39.555 -11.467,55.733c-7.644,16.178 -18.222,29.867 -31.733,41.067c-13.511,11.2 -29.423,19.733 -47.734,25.6c-18.311,5.866 -38.133,8.8 -59.466,8.8c-21.689,0 -39.645,-1.423 -53.867,-4.267c-14.222,-2.845 -26.044,-6.045 -35.467,-9.6c-9.422,-3.556 -17.333,-6.756 -23.733,-9.6c-6.4,-2.845 -12.444,-4.267 -18.133,-4.267c-4.978,0 -9.334,1.422 -13.067,4.267c-3.733,2.844 -7.022,7.822 -9.867,14.933l-60.266,0l0,-136l60.266,-3.2c2.134,27.734 14.578,47.645 37.334,59.734c22.755,12.088 52.8,18.133 90.133,18.133c21.333,0 38.311,-2.845 50.933,-8.533c12.623,-5.689 18.934,-16.712 18.934,-33.067c0,-9.956 -4.711,-17.511 -14.134,-22.667c-9.422,-5.155 -21.6,-9.333 -36.533,-12.533c-14.933,-3.2 -31.644,-6.133 -50.133,-8.8c-18.489,-2.667 -36.8,-6.489 -54.934,-11.467c-19.911,-5.689 -36.444,-12.533 -49.6,-20.533c-13.155,-8 -23.644,-17.333 -31.466,-28c-7.823,-10.667 -13.334,-22.845 -16.534,-36.533c-3.2,-13.689 -4.8,-29.067 -4.8,-46.134c0,-15.644 2.667,-30.489 8,-44.533c5.334,-14.045 13.511,-26.311 24.534,-36.8c11.022,-10.489 24.889,-18.756 41.6,-24.8c16.711,-6.045 36.622,-9.067 59.733,-9.067c20.622,0 37.778,1.334 51.467,4c13.689,2.667 25.066,5.689 34.133,9.067c9.067,3.378 16.533,6.4 22.4,9.067c5.867,2.666 11.289,4 16.267,4c7.111,0 12.711,-1.334 16.8,-4c4.089,-2.667 8.266,-7.2 12.533,-13.6l53.333,0l0,128Z" style="fill-rule:nonzero;"/><path d="M2044.55,1457.91c-19.556,0 -35.911,-2.045 -49.067,-6.134c-13.155,-4.089 -23.733,-9.866 -31.733,-17.333c-8,-7.467 -13.689,-16.445 -17.067,-26.933c-3.377,-10.489 -5.066,-22.134 -5.066,-34.934l0,-143.466l-45.334,0l0,-39.467c9.6,-0.711 19.378,-2.133 29.334,-4.267c9.955,-2.133 18.933,-5.866 26.933,-11.2c8,-5.333 14.578,-12.8 19.733,-22.4c5.156,-9.6 7.734,-22.044 7.734,-37.333l0,-11.733l83.2,-3.734l0,83.734l68.8,0l-2.667,52.266c-9.6,-2.133 -19.911,-3.644 -30.933,-4.533c-11.023,-0.889 -22.756,-1.333 -35.2,-1.333l0,154.133c0,8.178 1.244,14.222 3.733,18.133c2.489,3.911 7.111,5.867 13.867,5.867c6.755,0 11.377,-1.956 13.866,-5.867c2.489,-3.911 3.734,-9.955 3.734,-18.133l0,-20.267l36.8,0l0,10.134c0,25.244 -7.023,45.688 -21.067,61.333c-14.044,15.644 -37.244,23.467 -69.6,23.467Z" style="fill-rule:nonzero;"/><path d="M2334.68,1182.71l0,132.8c0,44.444 9.956,66.666 29.867,66.666c11.733,0 20.978,-5.066 27.733,-15.2c6.756,-10.133 12.089,-25.333 16,-45.6l0,-59.2c0,-8.178 -2.666,-14.311 -8,-18.4c-5.333,-4.089 -14.044,-6.133 -26.133,-6.133l0,-54.933l153.067,0l0,192.533c0,16 14.755,24 44.266,24l0,54.933l-163.2,0l0,-54.4c-11.733,20.267 -26.044,35.289 -42.933,45.067c-16.889,9.778 -38.311,14.667 -64.267,14.667c-28.8,0 -49.955,-6.578 -63.466,-19.734c-13.511,-13.155 -20.267,-33.066 -20.267,-59.733l0,-118.4c0,-16 -15.111,-24 -45.333,-24l0,-54.933l162.666,0Z" style="fill-rule:nonzero;"/><path d="M2607.75,1317.64c0,-26.311 3.111,-48.711 9.333,-67.2c6.223,-18.489 14.934,-33.511 26.134,-45.067c11.2,-11.555 24.711,-20 40.533,-25.333c15.822,-5.333 33.333,-8 52.533,-8c14.223,0 27.645,1.778 40.267,5.333c12.622,3.556 23.378,9.245 32.267,17.067l0,-72c0,-16 -14.756,-24 -44.267,-24l0,-54.933l166.4,0l0,331.2c0,16 15.111,24 45.333,24l0,55.466l-148.8,0l-3.733,-44.266c-4.267,8.533 -9.956,16.177 -17.067,22.933c-7.111,6.755 -15.2,12.355 -24.266,16.8c-9.067,4.444 -18.667,7.822 -28.8,10.133c-10.134,2.311 -20.534,3.467 -31.2,3.467c-16.711,0 -32.089,-2.667 -46.134,-8c-14.044,-5.333 -26.133,-13.778 -36.266,-25.333c-10.134,-11.556 -18.045,-26.578 -23.734,-45.067c-5.689,-18.489 -8.533,-40.889 -8.533,-67.2Zm168,71.467c7.822,0 14.489,-1.245 20,-3.734c5.511,-2.489 9.956,-6.844 13.333,-13.066c3.378,-6.223 5.778,-14.4 7.2,-24.534c1.423,-10.133 2.134,-22.666 2.134,-37.6c0,-14.933 -0.711,-27.466 -2.134,-37.6c-1.422,-10.133 -3.822,-18.311 -7.2,-24.533c-3.377,-6.222 -7.822,-10.578 -13.333,-13.067c-5.511,-2.489 -12.178,-3.733 -20,-3.733c-7.822,0 -14.578,1.244 -20.267,3.733c-5.689,2.489 -10.4,6.845 -14.133,13.067c-3.733,6.222 -6.578,14.4 -8.533,24.533c-1.956,10.134 -2.934,22.667 -2.934,37.6c0,14.934 0.978,27.467 2.934,37.6c1.955,10.134 4.8,18.311 8.533,24.534c3.733,6.222 8.444,10.577 14.133,13.066c5.689,2.489 12.445,3.734 20.267,3.734Z" style="fill-rule:nonzero;"/><path d="M3178.42,1374.71c0,16 14.933,24 44.8,24l0,55.466l-211.2,0l0,-55.466c29.866,0 44.8,-8 44.8,-24l0,-112.534c0,-16.355 -14.934,-24.533 -44.8,-24.533l0,-54.933l166.4,0l0,192Zm-120.534,-274.667c0,-8.533 1.6,-16.533 4.8,-24c3.2,-7.467 7.645,-14.045 13.334,-19.733c5.689,-5.689 12.266,-10.134 19.733,-13.334c7.467,-3.2 15.467,-4.8 24,-4.8c8.533,0 16.533,1.6 24,4.8c7.467,3.2 14.044,7.645 19.733,13.334c5.689,5.688 10.134,12.266 13.334,19.733c3.2,7.467 4.8,15.467 4.8,24c0,8.533 -1.6,16.533 -4.8,24c-3.2,7.467 -7.645,14.044 -13.334,19.733c-5.689,5.689 -12.266,10.134 -19.733,13.334c-7.467,3.2 -15.467,4.8 -24,4.8c-8.533,0 -16.533,-1.6 -24,-4.8c-7.467,-3.2 -14.044,-7.645 -19.733,-13.334c-5.689,-5.689 -10.134,-12.266 -13.334,-19.733c-3.2,-7.467 -4.8,-15.467 -4.8,-24Z" style="fill-rule:nonzero;"/><path d="M3572.02,1317.11c0,49.066 -13.956,85.688 -41.867,109.866c-27.911,24.178 -66.756,36.267 -116.533,36.267c-20.267,0 -39.645,-1.956 -58.134,-5.867c-18.489,-3.911 -34.755,-11.022 -48.8,-21.333c-14.044,-10.311 -25.155,-24.533 -33.333,-42.667c-8.178,-18.133 -12.267,-41.422 -12.267,-69.866c0,-52.267 13.334,-90.578 40,-114.934c26.667,-24.355 65.956,-36.533 117.867,-36.533c20.978,0 40.8,2.133 59.467,6.4c18.666,4.267 34.933,11.822 48.8,22.667c13.866,10.844 24.8,25.6 32.8,44.266c8,18.667 12,42.578 12,71.734Zm-156.8,86.933c6.755,0 12.355,-1.156 16.8,-3.467c4.444,-2.311 8,-6.578 10.666,-12.8c2.667,-6.222 4.623,-14.844 5.867,-25.866c1.244,-11.023 1.867,-25.245 1.867,-42.667c0,-18.133 -0.534,-32.889 -1.6,-44.267c-1.067,-11.378 -2.934,-20.266 -5.6,-26.666c-2.667,-6.4 -6.134,-10.756 -10.4,-13.067c-4.267,-2.311 -9.6,-3.467 -16,-3.467c-6.045,0 -11.289,1.067 -15.734,3.2c-4.444,2.134 -8.089,6.045 -10.933,11.734c-2.844,5.688 -4.978,13.6 -6.4,23.733c-1.422,10.133 -2.133,23.2 -2.133,39.2c0,19.911 0.444,36.089 1.333,48.533c0.889,12.445 2.578,22.045 5.067,28.8c2.489,6.756 5.866,11.289 10.133,13.6c4.267,2.311 9.956,3.467 17.067,3.467Z" style="fill-rule:nonzero;"/><path d="M1967.22,1868.85c16,0 27.2,-1.334 33.6,-4c6.4,-2.667 10.666,-6.489 12.8,-11.467l105.6,-324.8l137.6,0l98.133,324.267c4.267,10.666 18.489,16 42.667,16l0,56l-232.534,0l0,-56l35.2,0c10.311,0 15.467,-3.022 15.467,-9.067c0,-1.067 -0.178,-2.133 -0.533,-3.2c-0.356,-1.067 -0.711,-2.311 -1.067,-3.733l-8,-28.267l-124.8,0l-7.467,24c-1.066,2.845 -1.6,5.333 -1.6,7.467c0,8.533 8,12.8 24,12.8l28.267,0l0,56l-156.8,0l-0.533,-56Zm130.666,-98.667l93.334,0l-43.734,-160l-49.6,160Z" style="fill-rule:nonzero;"/><path d="M2604.55,1845.38c0,16 14.933,24 44.8,24l0,55.467l-211.2,0l0,-55.467c29.867,0 44.8,-8 44.8,-24l0,-252.267c0,-16 -14.933,-24 -44.8,-24l0,-54.933l166.4,0l0,331.2Z" style="fill-rule:nonzero;"/><path d="M2856.82,1845.38c0,16 14.933,24 44.8,24l0,55.467l-211.2,0l0,-55.467c29.866,0 44.8,-8 44.8,-24l0,-112.533c0,-16.356 -14.934,-24.534 -44.8,-24.534l0,-54.933l166.4,0l0,192Zm-120.534,-274.667c0,-8.533 1.6,-16.533 4.8,-24c3.2,-7.466 7.645,-14.044 13.334,-19.733c5.689,-5.689 12.266,-10.133 19.733,-13.333c7.467,-3.2 15.467,-4.8 24,-4.8c8.533,0 16.533,1.6 24,4.8c7.467,3.2 14.044,7.644 19.733,13.333c5.689,5.689 10.134,12.267 13.334,19.733c3.2,7.467 4.8,15.467 4.8,24c0,8.534 -1.6,16.534 -4.8,24c-3.2,7.467 -7.645,14.045 -13.334,19.734c-5.689,5.689 -12.266,10.133 -19.733,13.333c-7.467,3.2 -15.467,4.8 -24,4.8c-8.533,0 -16.533,-1.6 -24,-4.8c-7.467,-3.2 -14.044,-7.644 -19.733,-13.333c-5.689,-5.689 -10.134,-12.267 -13.334,-19.734c-3.2,-7.466 -4.8,-15.466 -4.8,-24Z" style="fill-rule:nonzero;"/><path d="M3166.68,1704.58c-3.911,-6.4 -10.133,-10.933 -18.666,-13.6c-8.534,-2.667 -17.956,-4 -28.267,-4c-8.533,0 -16.711,2.045 -24.533,6.133c-7.823,4.089 -14.756,10.045 -20.8,17.867c-6.045,7.822 -10.845,17.333 -14.4,28.533c-3.556,11.2 -5.334,23.912 -5.334,38.134c0,33.422 4.445,57.955 13.334,73.6c8.889,15.644 24.889,23.466 48,23.466c13.511,0 25.333,-3.733 35.466,-11.2c10.134,-7.466 16.089,-19.2 17.867,-35.2l56.533,3.734c-2.133,12.444 -6.133,24.711 -12,36.8c-5.866,12.089 -13.777,22.933 -23.733,32.533c-9.956,9.6 -22.311,17.422 -37.067,23.467c-14.755,6.044 -31.911,9.066 -51.466,9.066c-24.889,0 -47.556,-2.577 -68,-7.733c-20.445,-5.155 -38.045,-13.511 -52.8,-25.067c-14.756,-11.555 -26.223,-26.4 -34.4,-44.533c-8.178,-18.133 -12.267,-40.178 -12.267,-66.133c0,-19.556 3.022,-38.311 9.067,-56.267c6.044,-17.955 15.377,-33.689 28,-47.2c12.622,-13.511 28.8,-24.267 48.533,-32.267c19.733,-8 43.289,-12 70.667,-12c18.844,0 36.444,1.512 52.8,4.534c16.355,3.022 30.489,8.089 42.4,15.2c11.911,7.111 21.244,16.355 28,27.733c6.755,11.378 10.133,25.6 10.133,42.667c0,13.511 -3.822,25.244 -11.467,35.2c-7.644,9.955 -20,14.933 -37.066,14.933c-15.289,0 -26.667,-3.822 -34.134,-11.467c-7.466,-7.644 -11.2,-16.8 -11.2,-27.466c0,-9.245 3.289,-17.956 9.867,-26.134c6.578,-8.177 15.556,-12.622 26.933,-13.333Z" style="fill-rule:nonzero;"/><path d="M3390.15,1794.72c1.067,28.8 5.689,49.334 13.867,61.6c8.177,12.267 21.333,18.4 39.466,18.4c13.511,0 26.134,-4 37.867,-12c11.733,-8 19.378,-19.466 22.933,-34.4l56.534,3.734c-2.134,12.8 -6.4,25.333 -12.8,37.6c-6.4,12.266 -14.934,23.111 -25.6,32.533c-10.667,9.422 -23.556,17.067 -38.667,22.933c-15.111,5.867 -32.444,8.8 -52,8.8c-22.4,0 -43.467,-2.4 -63.2,-7.2c-19.733,-4.8 -36.978,-12.8 -51.733,-24c-14.756,-11.2 -26.311,-26.133 -34.667,-44.8c-8.356,-18.666 -12.533,-41.688 -12.533,-69.066c0,-46.578 13.155,-82.578 39.466,-108c26.311,-25.422 64.534,-38.134 114.667,-38.134c25.244,0 47.022,2.756 65.333,8.267c18.311,5.511 33.511,14.311 45.6,26.4c12.089,12.089 20.978,27.822 26.667,47.2c5.689,19.378 8.533,42.756 8.533,70.133l-179.733,0Zm82.667,-45.333c0,-6.4 -0.623,-13.244 -1.867,-20.533c-1.244,-7.289 -3.467,-14.045 -6.667,-20.267c-3.2,-6.222 -7.466,-11.378 -12.8,-15.467c-5.333,-4.088 -11.911,-6.133 -19.733,-6.133c-23.822,0 -37.333,20.8 -40.533,62.4l81.6,0Z" style="fill-rule:nonzero;"/></g><g transform="matrix(0.106231,0,0,0.106231,-155.434,-110.088)"><path d="M1841.88,1185.91l-60.266,4.8c-2.489,-13.867 -7.111,-25.423 -13.867,-34.667c-6.756,-9.245 -15.2,-16.622 -25.333,-22.133c-10.134,-5.512 -21.867,-9.512 -35.2,-12c-13.334,-2.489 -27.645,-3.734 -42.934,-3.734c-8.177,0 -15.822,0.445 -22.933,1.334c-7.111,0.888 -13.333,2.488 -18.667,4.8c-5.333,2.311 -9.6,5.6 -12.8,9.866c-3.2,4.267 -4.8,9.6 -4.8,16c0,9.956 5.511,17.511 16.534,22.667c11.022,5.155 25.066,9.511 42.133,13.067c17.067,3.555 36,7.111 56.8,10.666c20.8,3.556 40.978,8.711 60.533,15.467c28.089,9.6 49.334,23.911 63.734,42.933c14.4,19.022 21.6,44.534 21.6,76.534c0,20.977 -3.823,39.555 -11.467,55.733c-7.644,16.178 -18.222,29.867 -31.733,41.067c-13.511,11.2 -29.423,19.733 -47.734,25.6c-18.311,5.866 -38.133,8.8 -59.466,8.8c-21.689,0 -39.645,-1.423 -53.867,-4.267c-14.222,-2.845 -26.044,-6.045 -35.467,-9.6c-9.422,-3.556 -17.333,-6.756 -23.733,-9.6c-6.4,-2.845 -12.444,-4.267 -18.133,-4.267c-4.978,0 -9.334,1.422 -13.067,4.267c-3.733,2.844 -7.022,7.822 -9.867,14.933l-60.266,0l0,-136l60.266,-3.2c2.134,27.734 14.578,47.645 37.334,59.734c22.755,12.088 52.8,18.133 90.133,18.133c21.333,0 38.311,-2.845 50.933,-8.533c12.623,-5.689 18.934,-16.712 18.934,-33.067c0,-9.956 -4.711,-17.511 -14.134,-22.667c-9.422,-5.155 -21.6,-9.333 -36.533,-12.533c-14.933,-3.2 -31.644,-6.133 -50.133,-8.8c-18.489,-2.667 -36.8,-6.489 -54.934,-11.467c-19.911,-5.689 -36.444,-12.533 -49.6,-20.533c-13.155,-8 -23.644,-17.333 -31.466,-28c-7.823,-10.667 -13.334,-22.845 -16.534,-36.533c-3.2,-13.689 -4.8,-29.067 -4.8,-46.134c0,-15.644 2.667,-30.489 8,-44.533c5.334,-14.045 13.511,-26.311 24.534,-36.8c11.022,-10.489 24.889,-18.756 41.6,-24.8c16.711,-6.045 36.622,-9.067 59.733,-9.067c20.622,0 37.778,1.334 51.467,4c13.689,2.667 25.066,5.689 34.133,9.067c9.067,3.378 16.533,6.4 22.4,9.067c5.867,2.666 11.289,4 16.267,4c7.111,0 12.711,-1.334 16.8,-4c4.089,-2.667 8.266,-7.2 12.533,-13.6l53.333,0l0,128Z" style="fill:#34d6ff;fill-rule:nonzero;"/><path d="M2044.55,1457.91c-19.556,0 -35.911,-2.045 -49.067,-6.134c-13.155,-4.089 -23.733,-9.866 -31.733,-17.333c-8,-7.467 -13.689,-16.445 -17.067,-26.933c-3.377,-10.489 -5.066,-22.134 -5.066,-34.934l0,-143.466l-45.334,0l0,-39.467c9.6,-0.711 19.378,-2.133 29.334,-4.267c9.955,-2.133 18.933,-5.866 26.933,-11.2c8,-5.333 14.578,-12.8 19.733,-22.4c5.156,-9.6 7.734,-22.044 7.734,-37.333l0,-11.733l83.2,-3.734l0,83.734l68.8,0l-2.667,52.266c-9.6,-2.133 -19.911,-3.644 -30.933,-4.533c-11.023,-0.889 -22.756,-1.333 -35.2,-1.333l0,154.133c0,8.178 1.244,14.222 3.733,18.133c2.489,3.911 7.111,5.867 13.867,5.867c6.755,0 11.377,-1.956 13.866,-5.867c2.489,-3.911 3.734,-9.955 3.734,-18.133l0,-20.267l36.8,0l0,10.134c0,25.244 -7.023,45.688 -21.067,61.333c-14.044,15.644 -37.244,23.467 -69.6,23.467Z" style="fill:#34d6ff;fill-rule:nonzero;"/><path d="M2334.68,1182.71l0,132.8c0,44.444 9.956,66.666 29.867,66.666c11.733,0 20.978,-5.066 27.733,-15.2c6.756,-10.133 12.089,-25.333 16,-45.6l0,-59.2c0,-8.178 -2.666,-14.311 -8,-18.4c-5.333,-4.089 -14.044,-6.133 -26.133,-6.133l0,-54.933l153.067,0l0,192.533c0,16 14.755,24 44.266,24l0,54.933l-163.2,0l0,-54.4c-11.733,20.267 -26.044,35.289 -42.933,45.067c-16.889,9.778 -38.311,14.667 -64.267,14.667c-28.8,0 -49.955,-6.578 -63.466,-19.734c-13.511,-13.155 -20.267,-33.066 -20.267,-59.733l0,-118.4c0,-16 -15.111,-24 -45.333,-24l0,-54.933l162.666,0Z" style="fill:#34d6ff;fill-rule:nonzero;"/><path d="M2607.75,1317.64c0,-26.311 3.111,-48.711 9.333,-67.2c6.223,-18.489 14.934,-33.511 26.134,-45.067c11.2,-11.555 24.711,-20 40.533,-25.333c15.822,-5.333 33.333,-8 52.533,-8c14.223,0 27.645,1.778 40.267,5.333c12.622,3.556 23.378,9.245 32.267,17.067l0,-72c0,-16 -14.756,-24 -44.267,-24l0,-54.933l166.4,0l0,331.2c0,16 15.111,24 45.333,24l0,55.466l-148.8,0l-3.733,-44.266c-4.267,8.533 -9.956,16.177 -17.067,22.933c-7.111,6.755 -15.2,12.355 -24.266,16.8c-9.067,4.444 -18.667,7.822 -28.8,10.133c-10.134,2.311 -20.534,3.467 -31.2,3.467c-16.711,0 -32.089,-2.667 -46.134,-8c-14.044,-5.333 -26.133,-13.778 -36.266,-25.333c-10.134,-11.556 -18.045,-26.578 -23.734,-45.067c-5.689,-18.489 -8.533,-40.889 -8.533,-67.2Zm168,71.467c7.822,0 14.489,-1.245 20,-3.734c5.511,-2.489 9.956,-6.844 13.333,-13.066c3.378,-6.223 5.778,-14.4 7.2,-24.534c1.423,-10.133 2.134,-22.666 2.134,-37.6c0,-14.933 -0.711,-27.466 -2.134,-37.6c-1.422,-10.133 -3.822,-18.311 -7.2,-24.533c-3.377,-6.222 -7.822,-10.578 -13.333,-13.067c-5.511,-2.489 -12.178,-3.733 -20,-3.733c-7.822,0 -14.578,1.244 -20.267,3.733c-5.689,2.489 -10.4,6.845 -14.133,13.067c-3.733,6.222 -6.578,14.4 -8.533,24.533c-1.956,10.134 -2.934,22.667 -2.934,37.6c0,14.934 0.978,27.467 2.934,37.6c1.955,10.134 4.8,18.311 8.533,24.534c3.733,6.222 8.444,10.577 14.133,13.066c5.689,2.489 12.445,3.734 20.267,3.734Z" style="fill:#34d6ff;fill-rule:nonzero;"/><path d="M3178.42,1374.71c0,16 14.933,24 44.8,24l0,55.466l-211.2,0l0,-55.466c29.866,0 44.8,-8 44.8,-24l0,-112.534c0,-16.355 -14.934,-24.533 -44.8,-24.533l0,-54.933l166.4,0l0,192Zm-120.534,-274.667c0,-8.533 1.6,-16.533 4.8,-24c3.2,-7.467 7.645,-14.045 13.334,-19.733c5.689,-5.689 12.266,-10.134 19.733,-13.334c7.467,-3.2 15.467,-4.8 24,-4.8c8.533,0 16.533,1.6 24,4.8c7.467,3.2 14.044,7.645 19.733,13.334c5.689,5.688 10.134,12.266 13.334,19.733c3.2,7.467 4.8,15.467 4.8,24c0,8.533 -1.6,16.533 -4.8,24c-3.2,7.467 -7.645,14.044 -13.334,19.733c-5.689,5.689 -12.266,10.134 -19.733,13.334c-7.467,3.2 -15.467,4.8 -24,4.8c-8.533,0 -16.533,-1.6 -24,-4.8c-7.467,-3.2 -14.044,-7.645 -19.733,-13.334c-5.689,-5.689 -10.134,-12.266 -13.334,-19.733c-3.2,-7.467 -4.8,-15.467 -4.8,-24Z" style="fill:#34d6ff;fill-rule:nonzero;"/><path d="M3572.02,1317.11c0,49.066 -13.956,85.688 -41.867,109.866c-27.911,24.178 -66.756,36.267 -116.533,36.267c-20.267,0 -39.645,-1.956 -58.134,-5.867c-18.489,-3.911 -34.755,-11.022 -48.8,-21.333c-14.044,-10.311 -25.155,-24.533 -33.333,-42.667c-8.178,-18.133 -12.267,-41.422 -12.267,-69.866c0,-52.267 13.334,-90.578 40,-114.934c26.667,-24.355 65.956,-36.533 117.867,-36.533c20.978,0 40.8,2.133 59.467,6.4c18.666,4.267 34.933,11.822 48.8,22.667c13.866,10.844 24.8,25.6 32.8,44.266c8,18.667 12,42.578 12,71.734Zm-156.8,86.933c6.755,0 12.355,-1.156 16.8,-3.467c4.444,-2.311 8,-6.578 10.666,-12.8c2.667,-6.222 4.623,-14.844 5.867,-25.866c1.244,-11.023 1.867,-25.245 1.867,-42.667c0,-18.133 -0.534,-32.889 -1.6,-44.267c-1.067,-11.378 -2.934,-20.266 -5.6,-26.666c-2.667,-6.4 -6.134,-10.756 -10.4,-13.067c-4.267,-2.311 -9.6,-3.467 -16,-3.467c-6.045,0 -11.289,1.067 -15.734,3.2c-4.444,2.134 -8.089,6.045 -10.933,11.734c-2.844,5.688 -4.978,13.6 -6.4,23.733c-1.422,10.133 -2.133,23.2 -2.133,39.2c0,19.911 0.444,36.089 1.333,48.533c0.889,12.445 2.578,22.045 5.067,28.8c2.489,6.756 5.866,11.289 10.133,13.6c4.267,2.311 9.956,3.467 17.067,3.467Z" style="fill:#34d6ff;fill-rule:nonzero;"/><path d="M1967.22,1868.85c16,0 27.2,-1.334 33.6,-4c6.4,-2.667 10.666,-6.489 12.8,-11.467l105.6,-324.8l137.6,0l98.133,324.267c4.267,10.666 18.489,16 42.667,16l0,56l-232.534,0l0,-56l35.2,0c10.311,0 15.467,-3.022 15.467,-9.067c0,-1.067 -0.178,-2.133 -0.533,-3.2c-0.356,-1.067 -0.711,-2.311 -1.067,-3.733l-8,-28.267l-124.8,0l-7.467,24c-1.066,2.845 -1.6,5.333 -1.6,7.467c0,8.533 8,12.8 24,12.8l28.267,0l0,56l-156.8,0l-0.533,-56Zm130.666,-98.667l93.334,0l-43.734,-160l-49.6,160Z" style="fill:#34d6ff;fill-rule:nonzero;"/><path d="M2604.55,1845.38c0,16 14.933,24 44.8,24l0,55.467l-211.2,0l0,-55.467c29.867,0 44.8,-8 44.8,-24l0,-252.267c0,-16 -14.933,-24 -44.8,-24l0,-54.933l166.4,0l0,331.2Z" style="fill:#34d6ff;fill-rule:nonzero;"/><path d="M2856.82,1845.38c0,16 14.933,24 44.8,24l0,55.467l-211.2,0l0,-55.467c29.866,0 44.8,-8 44.8,-24l0,-112.533c0,-16.356 -14.934,-24.534 -44.8,-24.534l0,-54.933l166.4,0l0,192Zm-120.534,-274.667c0,-8.533 1.6,-16.533 4.8,-24c3.2,-7.466 7.645,-14.044 13.334,-19.733c5.689,-5.689 12.266,-10.133 19.733,-13.333c7.467,-3.2 15.467,-4.8 24,-4.8c8.533,0 16.533,1.6 24,4.8c7.467,3.2 14.044,7.644 19.733,13.333c5.689,5.689 10.134,12.267 13.334,19.733c3.2,7.467 4.8,15.467 4.8,24c0,8.534 -1.6,16.534 -4.8,24c-3.2,7.467 -7.645,14.045 -13.334,19.734c-5.689,5.689 -12.266,10.133 -19.733,13.333c-7.467,3.2 -15.467,4.8 -24,4.8c-8.533,0 -16.533,-1.6 -24,-4.8c-7.467,-3.2 -14.044,-7.644 -19.733,-13.333c-5.689,-5.689 -10.134,-12.267 -13.334,-19.734c-3.2,-7.466 -4.8,-15.466 -4.8,-24Z" style="fill:#34d6ff;fill-rule:nonzero;"/><path d="M3166.68,1704.58c-3.911,-6.4 -10.133,-10.933 -18.666,-13.6c-8.534,-2.667 -17.956,-4 -28.267,-4c-8.533,0 -16.711,2.045 -24.533,6.133c-7.823,4.089 -14.756,10.045 -20.8,17.867c-6.045,7.822 -10.845,17.333 -14.4,28.533c-3.556,11.2 -5.334,23.912 -5.334,38.134c0,33.422 4.445,57.955 13.334,73.6c8.889,15.644 24.889,23.466 48,23.466c13.511,0 25.333,-3.733 35.466,-11.2c10.134,-7.466 16.089,-19.2 17.867,-35.2l56.533,3.734c-2.133,12.444 -6.133,24.711 -12,36.8c-5.866,12.089 -13.777,22.933 -23.733,32.533c-9.956,9.6 -22.311,17.422 -37.067,23.467c-14.755,6.044 -31.911,9.066 -51.466,9.066c-24.889,0 -47.556,-2.577 -68,-7.733c-20.445,-5.155 -38.045,-13.511 -52.8,-25.067c-14.756,-11.555 -26.223,-26.4 -34.4,-44.533c-8.178,-18.133 -12.267,-40.178 -12.267,-66.133c0,-19.556 3.022,-38.311 9.067,-56.267c6.044,-17.955 15.377,-33.689 28,-47.2c12.622,-13.511 28.8,-24.267 48.533,-32.267c19.733,-8 43.289,-12 70.667,-12c18.844,0 36.444,1.512 52.8,4.534c16.355,3.022 30.489,8.089 42.4,15.2c11.911,7.111 21.244,16.355 28,27.733c6.755,11.378 10.133,25.6 10.133,42.667c0,13.511 -3.822,25.244 -11.467,35.2c-7.644,9.955 -20,14.933 -37.066,14.933c-15.289,0 -26.667,-3.822 -34.134,-11.467c-7.466,-7.644 -11.2,-16.8 -11.2,-27.466c0,-9.245 3.289,-17.956 9.867,-26.134c6.578,-8.177 15.556,-12.622 26.933,-13.333Z" style="fill:#34d6ff;fill-rule:nonzero;"/><path d="M3390.15,1794.72c1.067,28.8 5.689,49.334 13.867,61.6c8.177,12.267 21.333,18.4 39.466,18.4c13.511,0 26.134,-4 37.867,-12c11.733,-8 19.378,-19.466 22.933,-34.4l56.534,3.734c-2.134,12.8 -6.4,25.333 -12.8,37.6c-6.4,12.266 -14.934,23.111 -25.6,32.533c-10.667,9.422 -23.556,17.067 -38.667,22.933c-15.111,5.867 -32.444,8.8 -52,8.8c-22.4,0 -43.467,-2.4 -63.2,-7.2c-19.733,-4.8 -36.978,-12.8 -51.733,-24c-14.756,-11.2 -26.311,-26.133 -34.667,-44.8c-8.356,-18.666 -12.533,-41.688 -12.533,-69.066c0,-46.578 13.155,-82.578 39.466,-108c26.311,-25.422 64.534,-38.134 114.667,-38.134c25.244,0 47.022,2.756 65.333,8.267c18.311,5.511 33.511,14.311 45.6,26.4c12.089,12.089 20.978,27.822 26.667,47.2c5.689,19.378 8.533,42.756 8.533,70.133l-179.733,0Zm82.667,-45.333c0,-6.4 -0.623,-13.244 -1.867,-20.533c-1.244,-7.289 -3.467,-14.045 -6.667,-20.267c-3.2,-6.222 -7.466,-11.378 -12.8,-15.467c-5.333,-4.088 -11.911,-6.133 -19.733,-6.133c-23.822,0 -37.333,20.8 -40.533,62.4l81.6,0Z" style="fill:#34d6ff;fill-rule:nonzero;"/></g><g id="katt"><ellipse cx="27.796" cy="68.812" rx="25.325" ry="21.576" style="fill:#808080;"/><path d="M5.475,60.367l-5.374,-17.983l19.143,10.876l-13.769,7.107Z" style="fill:#808080;"/><path d="M51.014,60.367l5.374,-17.983l-19.143,10.876l13.769,7.107Z" style="fill:#808080;"/><path d="M24.383,71.669c-0.394,-0.55 -0.448,-1.274 -0.139,-1.876c0.309,-0.602 0.929,-0.981 1.606,-0.981l4.809,0c0.607,0 1.162,0.339 1.44,0.877c0.278,0.539 0.232,1.188 -0.12,1.682c-1.671,2.348 -3.889,5.463 -3.889,5.463c0,0 -2.053,-2.86 -3.707,-5.165Z"/><g><ellipse cx="17.521" cy="61.974" rx="4.812" ry="3.015" style="fill:#fff;stroke:#000;stroke-width:0.75px;"/><ellipse cx="18.686" cy="61.947" rx="1.923" ry="1.891" style="stroke:#000;stroke-width:0.75px;"/></g><g><ellipse cx="38.613" cy="61.974" rx="4.812" ry="3.015" style="fill:#fff;stroke:#000;stroke-width:0.75px;"/><ellipse cx="37.397" cy="61.947" rx="1.873" ry="1.891" style="stroke:#000;stroke-width:0.75px;"/></g><path d="M28.422,76.903l0.06,0.001l0.059,0.001l0.058,0.001l0.06,0.002l0.058,0.001l0.057,0.002l0.058,0.002l0.058,0.003l0.057,0.002l0.057,0.003l0.057,0.003l0.056,0.003l0.056,0.004l0.056,0.003l0.056,0.004l0.055,0.004l0.055,0.004l0.055,0.005l0.055,0.005l0.054,0.004l0.053,0.006l0.054,0.005l0.053,0.005l0.054,0.006l0.053,0.005l0.052,0.006l0.053,0.006l0.052,0.007l0.052,0.006l0.052,0.007l0.051,0.006l0.051,0.007l0.051,0.007l0.051,0.007l0.05,0.008l0.05,0.007l0.049,0.007l0.051,0.008l0.049,0.008l0.048,0.008l0.049,0.008l0.049,0.008l0.047,0.008l0.049,0.008l0.047,0.009l0.047,0.008l0.048,0.009l0.047,0.009l0.046,0.008l0.047,0.009l0.046,0.009l0.045,0.009l0.046,0.009l0.046,0.009l0.045,0.01l0.044,0.009l0.045,0.009l0.045,0.01l0.043,0.009l0.044,0.009l0.087,0.019l0.086,0.019l0.084,0.02l0.084,0.019l0.083,0.019l0.081,0.02l0.081,0.019l0.079,0.019l0.079,0.019l0.077,0.02l0.077,0.019l0.15,0.037l0.145,0.036l0.142,0.036l0.069,0.017l0.068,0.017l0.067,0.016l0.066,0.016l0.065,0.016l0.064,0.015l0.062,0.015l0.062,0.014l0.061,0.014l0.06,0.013l0.028,0.006l0.03,0.006l0.029,0.006l0.027,0.006l0.029,0.006l0.028,0.005l0.028,0.006l0.027,0.005l0.027,0.005l0.026,0.005l0.027,0.005l0.026,0.004l0.025,0.005l0.026,0.004l0.026,0.004l0.024,0.004l0.024,0.004l0.025,0.003l0.025,0.004l0.023,0.003l0.023,0.003l0.023,0.003l0.023,0.002l0.022,0.003l0.023,0.002l0.021,0.002l0.021,0.002l0.023,0.002l0.02,0.002l0.02,0.001l0.02,0.001l0.019,0.002l0.02,0l0.02,0.001l0.019,0.001l0.018,0l0.018,0l0.018,0l0.017,0l0.018,0l0.017,0l0.016,-0.001l0.016,-0.001l0.017,0l0.015,-0.001l0.016,-0.002l0.015,-0.001l0.015,-0.001l0.015,-0.002l0.013,-0.002l0.014,-0.001l0.014,-0.002l0.013,-0.002l0.013,-0.003l0.014,-0.002l0.012,-0.002l0.012,-0.003l0.013,-0.003l0.011,-0.002l0.012,-0.003l0.012,-0.003l0.011,-0.003l0.012,-0.004l0.011,-0.003l0.01,-0.003l0.011,-0.004l0.011,-0.004l0.01,-0.003l0.011,-0.005l0.01,-0.004l0.01,-0.004l0.013,-0.005l0.002,-0.001l0.006,-0.003l0.005,-0.002l0.004,-0.002l0.006,-0.003l0.006,-0.003l0.003,-0.001l0.006,-0.003l0.006,-0.003l0.004,-0.002l0.006,-0.003l0.003,-0.002l0.005,-0.003l0.008,-0.004l0.004,-0.002l0.004,-0.003l0.006,-0.003l0.004,-0.003l0.006,-0.003l0.006,-0.004l0.005,-0.003l0.004,-0.003l0.005,-0.003l0.006,-0.004l0.005,-0.003l0.005,-0.003l0.006,-0.005l0.006,-0.004l0.005,-0.003l0.003,-0.003l0.007,-0.004l0.006,-0.005l0.006,-0.004l0.005,-0.004l0.004,-0.004l0.006,-0.004l0.007,-0.005l0.005,-0.005l0.005,-0.004l0.006,-0.004l0.005,-0.005l0.006,-0.005l0.006,-0.005l0.006,-0.005l0.006,-0.005l0.006,-0.006l0.006,-0.005l0.005,-0.004l0.006,-0.006l0.007,-0.007l0.006,-0.006l0.006,-0.005l0.006,-0.006l0.005,-0.005l0.013,-0.014l0.013,-0.013l0.013,-0.013l0.012,-0.013l0.014,-0.015l0.013,-0.015l0.013,-0.015l0.014,-0.016l0.013,-0.017l0.014,-0.016l0.013,-0.017l0.015,-0.019l0.014,-0.018l0.014,-0.019l0.014,-0.02l0.015,-0.02l0.014,-0.02l0.015,-0.022l0.015,-0.022l0.015,-0.022l0.015,-0.023l0.015,-0.024l0.015,-0.024l0.015,-0.025l0.016,-0.026l0.015,-0.026l0.016,-0.027l0.015,-0.027l0.016,-0.028l0.016,-0.029l0.016,-0.029l0.016,-0.03l0.015,-0.03l0.017,-0.032l0.016,-0.031l0.016,-0.033l0.016,-0.033l0.016,-0.033l0.017,-0.035l0.016,-0.035l0.017,-0.038l0.038,-0.074l0.044,-0.07l0.049,-0.066l0.054,-0.063l0.06,-0.057l0.064,-0.052l0.068,-0.047l0.071,-0.041l0.075,-0.035l0.078,-0.029l0.079,-0.022l0.082,-0.016l0.082,-0.008l0.082,-0.002l0.083,0.004l0.082,0.012l0.08,0.018l0.079,0.025l0.077,0.032l0.073,0.037l0.071,0.044l0.066,0.049l0.062,0.054l0.057,0.06l0.053,0.064l0.047,0.068l0.041,0.072l0.035,0.075l0.028,0.077l0.023,0.08l0.015,0.081l0.009,0.082l0.002,0.083l-0.005,0.082l-0.011,0.082l-0.019,0.081l-0.025,0.078l-0.031,0.077l-0.02,0.044l-0.022,0.046l-0.022,0.046l-0.021,0.045l-0.022,0.044l-0.022,0.045l-0.022,0.043l-0.022,0.043l-0.023,0.043l-0.023,0.043l-0.022,0.041l-0.023,0.042l-0.023,0.041l-0.024,0.041l-0.023,0.04l-0.023,0.04l-0.024,0.039l-0.024,0.039l-0.024,0.039l-0.024,0.038l-0.025,0.037l-0.025,0.038l-0.025,0.037l-0.025,0.036l-0.025,0.037l-0.026,0.036l-0.026,0.034l-0.026,0.036l-0.026,0.034l-0.026,0.034l-0.027,0.034l-0.028,0.034l-0.027,0.032l-0.027,0.032l-0.028,0.033l-0.028,0.031l-0.029,0.031l-0.028,0.031l-0.029,0.031l-0.03,0.03l-0.028,0.028l-0.016,0.016l-0.015,0.015l-0.015,0.014l-0.015,0.014l-0.014,0.014l-0.015,0.014l-0.017,0.015l-0.016,0.014l-0.015,0.013l-0.015,0.014l-0.015,0.013l-0.016,0.013l-0.016,0.014l-0.015,0.013l-0.017,0.013l-0.016,0.013l-0.016,0.013l-0.015,0.012l-0.016,0.013l-0.017,0.013l-0.017,0.012l-0.016,0.013l-0.015,0.011l-0.016,0.011l-0.018,0.013l-0.018,0.012l-0.016,0.011l-0.015,0.011l-0.017,0.012l-0.018,0.011l-0.016,0.011l-0.017,0.011l-0.018,0.011l-0.018,0.011l-0.016,0.01l-0.017,0.01l-0.018,0.011l-0.016,0.01l-0.018,0.01l-0.019,0.011l-0.015,0.008l-0.018,0.01l-0.019,0.01l-0.017,0.009l-0.019,0.01l-0.016,0.009l-0.018,0.008l-0.019,0.01l-0.017,0.008l-0.017,0.008l-0.02,0.009l-0.017,0.008l-0.017,0.008l-0.021,0.009l-0.034,0.015l-0.037,0.015l-0.037,0.014l-0.035,0.014l-0.037,0.014l-0.037,0.012l-0.036,0.012l-0.038,0.012l-0.037,0.012l-0.037,0.01l-0.037,0.01l-0.037,0.01l-0.037,0.009l-0.038,0.009l-0.035,0.008l-0.038,0.007l-0.038,0.008l-0.036,0.006l-0.037,0.006l-0.037,0.006l-0.037,0.005l-0.037,0.005l-0.037,0.004l-0.037,0.004l-0.036,0.004l-0.037,0.003l-0.036,0.003l-0.037,0.002l-0.035,0.002l-0.037,0.002l-0.037,0.001l-0.036,0.001l-0.035,0l-0.036,0l-0.036,0l-0.036,0l-0.036,-0.001l-0.036,-0.001l-0.035,-0.001l-0.035,-0.002l-0.036,-0.002l-0.035,-0.002l-0.037,-0.003l-0.035,-0.002l-0.033,-0.003l-0.036,-0.003l-0.036,-0.004l-0.035,-0.004l-0.034,-0.003l-0.035,-0.005l-0.035,-0.004l-0.035,-0.004l-0.035,-0.005l-0.034,-0.005l-0.034,-0.005l-0.035,-0.005l-0.036,-0.006l-0.034,-0.005l-0.034,-0.006l-0.035,-0.006l-0.035,-0.006l-0.034,-0.006l-0.035,-0.007l-0.035,-0.006l-0.034,-0.007l-0.034,-0.007l-0.035,-0.007l-0.034,-0.006l-0.036,-0.008l-0.034,-0.007l-0.035,-0.007l-0.035,-0.008l-0.069,-0.015l-0.069,-0.016l-0.07,-0.016l-0.07,-0.016l-0.07,-0.017l-0.07,-0.017l-0.071,-0.017l-0.07,-0.017l-0.072,-0.018l-0.071,-0.018l-0.144,-0.036l-0.145,-0.036l-0.146,-0.037l-0.074,-0.018l-0.075,-0.018l-0.075,-0.018l-0.075,-0.019l-0.076,-0.018l-0.076,-0.018l-0.076,-0.018l-0.078,-0.018l-0.078,-0.017l-0.078,-0.018l-0.079,-0.017l-0.039,-0.009l-0.04,-0.008l-0.04,-0.009l-0.04,-0.008l-0.04,-0.008l-0.041,-0.009l-0.04,-0.008l-0.041,-0.008l-0.041,-0.008l-0.041,-0.008l-0.041,-0.008l-0.042,-0.007l-0.041,-0.008l-0.041,-0.008l-0.042,-0.007l-0.042,-0.008l-0.042,-0.007l-0.043,-0.007l-0.042,-0.007l-0.042,-0.007l-0.044,-0.007l-0.043,-0.007l-0.042,-0.006l-0.044,-0.007l-0.044,-0.007l-0.043,-0.006l-0.044,-0.006l-0.044,-0.006l-0.044,-0.006l-0.045,-0.006l-0.044,-0.005l-0.045,-0.006l-0.045,-0.005l-0.045,-0.006l-0.046,-0.005l-0.045,-0.005l-0.046,-0.004l-0.046,-0.005l-0.046,-0.004l-0.047,-0.005l-0.046,-0.004l-0.047,-0.004l-0.046,-0.004l-0.048,-0.003l-0.047,-0.004l-0.048,-0.003l-0.048,-0.003l-0.048,-0.003l-0.048,-0.003l-0.048,-0.003l-0.049,-0.002l-0.049,-0.002l-0.049,-0.002l-0.049,-0.002l-0.05,-0.002l-0.05,-0.001l-0.049,-0.001l-0.051,-0.001l-0.051,-0.001l-0.05,-0.001l-0.051,0l-0.051,0l-0.051,0l-0.05,0l-0.051,0.001l-0.05,0.001l-0.05,0.001l-0.051,0.001l-0.049,0.002l-0.049,0.002l-0.051,0.002l-0.049,0.002l-0.049,0.002l-0.049,0.003l-0.05,0.003l-0.049,0.003l-0.048,0.003l-0.05,0.004l-0.048,0.004l-0.048,0.004l-0.049,0.004l-0.048,0.004l-0.049,0.005l-0.048,0.004l-0.047,0.005l-0.049,0.005l-0.047,0.005l-0.048,0.006l-0.047,0.005l-0.047,0.006l-0.048,0.006l-0.047,0.006l-0.047,0.007l-0.047,0.006l-0.047,0.006l-0.047,0.007l-0.046,0.007l-0.046,0.007l-0.047,0.007l-0.046,0.008l-0.046,0.007l-0.046,0.008l-0.046,0.007l-0.045,0.008l-0.046,0.008l-0.046,0.008l-0.046,0.008l-0.045,0.009l-0.045,0.008l-0.045,0.009l-0.045,0.008l-0.045,0.009l-0.045,0.009l-0.045,0.009l-0.045,0.009l-0.044,0.009l-0.044,0.009l-0.045,0.01l-0.044,0.009l-0.044,0.01l-0.044,0.009l-0.043,0.01l-0.044,0.01l-0.044,0.009l-0.087,0.02l-0.087,0.02l-0.086,0.02l-0.086,0.021l-0.085,0.021l-0.085,0.02l-0.084,0.021l-0.085,0.021l-0.084,0.021l-0.083,0.021l-0.083,0.021l-0.166,0.042l-0.163,0.042l-0.163,0.041l-0.08,0.02l-0.081,0.021l-0.08,0.02l-0.08,0.019l-0.079,0.02l-0.08,0.019l-0.079,0.019l-0.078,0.018l-0.079,0.018l-0.039,0.009l-0.039,0.009l-0.04,0.008l-0.038,0.009l-0.039,0.008l-0.039,0.008l-0.04,0.009l-0.039,0.008l-0.039,0.007l-0.039,0.008l-0.038,0.007l-0.038,0.008l-0.04,0.007l-0.039,0.007l-0.038,0.007l-0.039,0.007l-0.038,0.006l-0.04,0.007l-0.038,0.006l-0.038,0.006l-0.039,0.006l-0.039,0.005l-0.038,0.006l-0.039,0.005l-0.039,0.005l-0.038,0.004l-0.039,0.005l-0.039,0.004l-0.039,0.004l-0.039,0.004l-0.038,0.003l-0.039,0.003l-0.039,0.003l-0.039,0.003l-0.039,0.002l-0.038,0.002l-0.04,0.002l-0.039,0.001l-0.039,0.001l-0.039,0.001l-0.04,0.001l-0.039,0l-0.038,-0.001l-0.04,0l-0.04,-0.001l-0.039,-0.002l-0.04,-0.002l-0.039,-0.002l-0.039,-0.003l-0.041,-0.003l-0.04,-0.003l-0.039,-0.004l-0.04,-0.005l-0.04,-0.005l-0.04,-0.005l-0.04,-0.006l-0.039,-0.006l-0.041,-0.008l-0.039,-0.007l-0.02,-0.004l-0.019,-0.004l-0.022,-0.004l-0.02,-0.005l-0.019,-0.004l-0.022,-0.005l-0.019,-0.005l-0.02,-0.005l-0.019,-0.005l-0.02,-0.005l-0.021,-0.005l-0.02,-0.006l-0.019,-0.005l-0.021,-0.006l-0.021,-0.007l-0.02,-0.006l-0.019,-0.006l-0.019,-0.006l-0.019,-0.006l-0.021,-0.007l-0.021,-0.008l-0.019,-0.007l-0.019,-0.006l-0.021,-0.008l-0.02,-0.008l-0.021,-0.008l-0.018,-0.008l-0.019,-0.007l-0.021,-0.009l-0.018,-0.008l-0.02,-0.008l-0.02,-0.009l-0.019,-0.009l-0.02,-0.009l-0.02,-0.01l-0.019,-0.009l-0.019,-0.009l-0.019,-0.01l-0.019,-0.01l-0.019,-0.01l-0.019,-0.01l-0.019,-0.011l-0.02,-0.01l-0.019,-0.011l-0.019,-0.011l-0.017,-0.01l-0.019,-0.012l-0.02,-0.012l-0.017,-0.011l-0.019,-0.011l-0.019,-0.013l-0.018,-0.012l-0.018,-0.011l-0.018,-0.013l-0.019,-0.013l-0.017,-0.012l-0.018,-0.013l-0.018,-0.013l-0.017,-0.012l-0.018,-0.013l-0.019,-0.015l-0.017,-0.014l-0.017,-0.013l-0.017,-0.014l-0.017,-0.014l-0.017,-0.014l-0.017,-0.014l-0.017,-0.015l-0.017,-0.015l-0.016,-0.014l-0.017,-0.015l-0.017,-0.015l-0.016,-0.015l-0.015,-0.015l-0.016,-0.015l-0.017,-0.017l-0.017,-0.016l-0.015,-0.015l-0.016,-0.016l-0.016,-0.017l-0.015,-0.015l-0.015,-0.016l-0.016,-0.017l-0.015,-0.017l-0.016,-0.018l-0.015,-0.017l-0.013,-0.016l-0.015,-0.016l-0.015,-0.018l-0.015,-0.018l-0.015,-0.018l-0.014,-0.017l-0.013,-0.017l-0.015,-0.019l-0.014,-0.018l-0.014,-0.018l-0.014,-0.018l-0.013,-0.018l-0.013,-0.018l-0.014,-0.019l-0.013,-0.019l-0.014,-0.019l-0.013,-0.019l-0.013,-0.019l-0.013,-0.019l-0.012,-0.018l-0.014,-0.021l-0.012,-0.019l-0.012,-0.019l-0.013,-0.02l-0.012,-0.02l-0.012,-0.02l-0.013,-0.02l-0.012,-0.02l-0.012,-0.02l-0.012,-0.021l-0.011,-0.02l-0.012,-0.021l-0.011,-0.02l-0.012,-0.021l-0.011,-0.021l-0.012,-0.021l-0.011,-0.021l-0.011,-0.021l-0.011,-0.021l-0.011,-0.022l-0.011,-0.022l-0.01,-0.021l-0.011,-0.022l-0.011,-0.022l-0.01,-0.022l-0.01,-0.022l-0.011,-0.022l-0.01,-0.022l-0.01,-0.023l-0.01,-0.022l-0.01,-0.023l-0.01,-0.023l-0.01,-0.023l-0.01,-0.022l-0.009,-0.023l-0.01,-0.024l-0.009,-0.023l-0.01,-0.023l-0.009,-0.024l-0.01,-0.024l-0.009,-0.023l-0.009,-0.024l-0.009,-0.024l-0.009,-0.024l-0.009,-0.025l-0.009,-0.025l-0.017,-0.048l-0.017,-0.049l-0.017,-0.05l-0.017,-0.051l-0.016,-0.051l-0.016,-0.051l-0.015,-0.049l-0.021,-0.08l-0.014,-0.081l-0.007,-0.082l-0.001,-0.083l0.006,-0.082l0.013,-0.082l0.02,-0.08l0.026,-0.079l0.033,-0.076l0.039,-0.073l0.045,-0.069l0.05,-0.066l0.055,-0.061l0.061,-0.056l0.065,-0.051l0.069,-0.046l0.072,-0.04l0.075,-0.034l0.078,-0.027l0.08,-0.021l0.082,-0.014l0.082,-0.007l0.083,-0.001l0.082,0.006l0.082,0.013l0.08,0.02l0.078,0.026l0.076,0.033l0.073,0.039l0.07,0.045l0.065,0.05l0.062,0.055l0.056,0.061l0.051,0.065l0.046,0.069l0.04,0.072l0.033,0.075l0.028,0.078l0.013,0.042l0.011,0.037l0.012,0.037l0.012,0.036l0.012,0.035l0.012,0.035l0.012,0.034l0.006,0.016l0.006,0.016l0.006,0.016l0.006,0.016l0.006,0.016l0.006,0.016l0.006,0.015l0.006,0.015l0.006,0.016l0.006,0.014l0.006,0.015l0.006,0.015l0.006,0.014l0.007,0.015l0.006,0.014l0.006,0.013l0.006,0.014l0.006,0.013l0.006,0.013l0.006,0.014l0.006,0.013l0.006,0.013l0.006,0.012l0.007,0.013l0.006,0.012l0.006,0.012l0.006,0.012l0.006,0.011l0.006,0.012l0.006,0.012l0.006,0.01l0.006,0.012l0.006,0.011l0.006,0.01l0.006,0.011l0.006,0.01l0.006,0.011l0.006,0.01l0.006,0.009l0.006,0.01l0.006,0.01l0.006,0.01l0.005,0.008l0.006,0.01l0.006,0.009l0.006,0.008l0.006,0.01l0.005,0.008l0.006,0.008l0.006,0.009l0.005,0.007l0.006,0.008l0.006,0.008l0.006,0.008l0.006,0.008l0.005,0.007l0.005,0.007l0.006,0.008l0.005,0.005l0.006,0.008l0.006,0.008l0.005,0.005l0.005,0.007l0.005,0.006l0.006,0.006l0.006,0.007l0.005,0.006l0.005,0.006l0.005,0.005l0.005,0.005l0.005,0.006l0.006,0.006l0.005,0.005l0.005,0.005l0.006,0.006l0.004,0.005l0.004,0.004l0.006,0.005l0.005,0.005l0.006,0.005l0.004,0.004l0.005,0.004l0.005,0.005l0.005,0.004l0.004,0.004l0.006,0.005l0.004,0.003l0.005,0.005l0.005,0.004l0.005,0.004l0.005,0.003l0.004,0.003l0.005,0.004l0.005,0.004l0.005,0.003l0.005,0.004l0.005,0.003l0.004,0.003l0.005,0.003l0.005,0.004l0.005,0.003l0.004,0.003l0.005,0.003l0.006,0.003l0.003,0.002l0.005,0.003l0.006,0.004l0.004,0.002l0.005,0.003l0.004,0.003l0.005,0.002l0.005,0.003l0.005,0.003l0.005,0.002l0.005,0.002l0.006,0.003l0.005,0.003l0.004,0.002l0.005,0.002l0.006,0.003l0.004,0.002l0.005,0.002l0.007,0.003l0.004,0.001l0.006,0.003l0.007,0.003l0.004,0.001l0.005,0.002l0.005,0.002l0.006,0.002l0.007,0.003l0.005,0.001l0.005,0.002l0.006,0.002l0.007,0.002l0.006,0.002l0.007,0.002l0.005,0.002l0.005,0.002l0.007,0.001l0.007,0.002l0.005,0.002l0.007,0.002l0.007,0.001l0.007,0.002l0.007,0.002l0.006,0.001l0.007,0.002l0.007,0.001l0.006,0.001l0.007,0.002l0.008,0.001l0.016,0.003l0.014,0.003l0.016,0.002l0.016,0.003l0.016,0.002l0.016,0.002l0.017,0.002l0.018,0.002l0.017,0.001l0.017,0.002l0.019,0.001l0.02,0.001l0.019,0.001l0.019,0.001l0.02,0l0.019,0.001l0.022,0l0.022,0l0.02,-0.001l0.022,0l0.023,-0.001l0.022,0l0.023,-0.001l0.023,-0.002l0.024,-0.001l0.024,-0.002l0.024,-0.001l0.025,-0.002l0.026,-0.003l0.025,-0.002l0.026,-0.003l0.026,-0.003l0.026,-0.003l0.027,-0.003l0.027,-0.003l0.028,-0.004l0.028,-0.004l0.028,-0.004l0.028,-0.004l0.03,-0.005l0.03,-0.005l0.028,-0.004l0.03,-0.005l0.03,-0.006l0.031,-0.005l0.031,-0.006l0.03,-0.005l0.032,-0.006l0.032,-0.007l0.032,-0.006l0.032,-0.006l0.033,-0.007l0.032,-0.007l0.033,-0.007l0.034,-0.007l0.034,-0.008l0.034,-0.007l0.034,-0.008l0.035,-0.007l0.07,-0.016l0.071,-0.017l0.072,-0.017l0.073,-0.018l0.074,-0.018l0.076,-0.019l0.076,-0.019l0.077,-0.019l0.078,-0.02l0.16,-0.04l0.164,-0.042l0.167,-0.043l0.085,-0.021l0.086,-0.022l0.087,-0.022l0.088,-0.021l0.089,-0.022l0.09,-0.022l0.09,-0.022l0.092,-0.022l0.093,-0.022l0.093,-0.021l0.094,-0.022l0.048,-0.01l0.047,-0.011l0.049,-0.01l0.047,-0.011l0.049,-0.01l0.049,-0.011l0.048,-0.01l0.05,-0.01l0.049,-0.011l0.05,-0.01l0.049,-0.009l0.05,-0.01l0.05,-0.01l0.051,-0.01l0.05,-0.009l0.051,-0.01l0.051,-0.009l0.052,-0.01l0.051,-0.009l0.051,-0.009l0.052,-0.009l0.053,-0.008l0.052,-0.009l0.053,-0.008l0.052,-0.009l0.053,-0.008l0.054,-0.008l0.053,-0.008l0.053,-0.008l0.054,-0.007l0.055,-0.008l0.054,-0.007l0.054,-0.007l0.055,-0.007l0.055,-0.006l0.055,-0.007l0.056,-0.006l0.055,-0.006l0.056,-0.006l0.056,-0.006l0.056,-0.005l0.057,-0.006l0.056,-0.005l0.057,-0.004l0.057,-0.005l0.057,-0.005l0.057,-0.004l0.058,-0.004l0.059,-0.003l0.057,-0.004l0.058,-0.003l0.059,-0.003l0.059,-0.002l0.058,-0.003l0.06,-0.002l0.059,-0.002l0.059,-0.001l0.06,-0.002l0.06,-0.001l0.06,0l0.06,-0.001l0.06,0l0.061,0l0.059,0Z"/><path d="M28.244,73.572l-0.206,4.251" style="fill:none;stroke:#000;stroke-width:2px;"/><g><path d="M35.068,68.812l12.498,-3.823" style="fill:none;stroke:#000;stroke-width:0.6px;"/><path d="M35.068,69.721l14.697,-0.909" style="fill:none;stroke:#000;stroke-width:0.6px;"/><path d="M35.068,70.69l11.722,2.882" style="fill:none;stroke:#000;stroke-width:0.6px;"/></g><g><path d="M8.583,64.693l0.037,0.009l12.289,3.823l0.035,0.014l0.033,0.018l0.031,0.021l0.028,0.026l0.024,0.029l0.02,0.031l0.017,0.034l0.012,0.036l0.008,0.037l0.002,0.037l-0.002,0.038l-0.006,0.037l-0.011,0.036l-0.016,0.034l-0.02,0.032l-0.023,0.03l-0.027,0.026l-0.031,0.022l-0.032,0.019l-0.035,0.014l-0.037,0.01l-0.037,0.005l-0.038,0.001l-0.037,-0.005l-0.037,-0.009l-12.288,-3.823l-0.036,-0.013l-0.033,-0.018l-0.031,-0.022l-0.027,-0.025l-0.025,-0.029l-0.02,-0.031l-0.017,-0.034l-0.012,-0.036l-0.007,-0.037l-0.003,-0.038l0.002,-0.037l0.006,-0.037l0.012,-0.036l0.015,-0.035l0.02,-0.032l0.024,-0.029l0.027,-0.026l0.03,-0.023l0.033,-0.018l0.035,-0.014l0.036,-0.01l0.037,-0.005l0.038,-0.001l0.037,0.004Z"/><path d="M20.838,69.422l0.041,0.005l0.039,0.011l0.038,0.016l0.035,0.021l0.032,0.026l0.028,0.03l0.024,0.033l0.019,0.036l0.014,0.039l0.008,0.04l0.003,0.041l-0.002,0.041l-0.008,0.04l-0.014,0.038l-0.018,0.037l-0.024,0.033l-0.028,0.031l-0.031,0.026l-0.035,0.021l-0.038,0.017l-0.039,0.011l-0.04,0.006l-0.041,0l-14.45,-0.91l-0.041,-0.005l-0.04,-0.011l-0.037,-0.016l-0.035,-0.021l-0.032,-0.026l-0.028,-0.029l-0.024,-0.034l-0.019,-0.036l-0.014,-0.039l-0.009,-0.04l-0.003,-0.04l0.003,-0.041l0.008,-0.04l0.014,-0.039l0.018,-0.037l0.024,-0.033l0.027,-0.03l0.032,-0.026l0.035,-0.022l0.037,-0.016l0.04,-0.011l0.04,-0.006l0.041,0l14.45,0.909Z"/><path d="M20.855,70.392l0.035,0.006l0.035,0.011l0.033,0.015l0.031,0.018l0.029,0.022l0.025,0.026l0.023,0.028l0.019,0.031l0.015,0.033l0.01,0.035l0.007,0.035l0.002,0.037l-0.002,0.036l-0.006,0.035l-0.011,0.035l-0.014,0.033l-0.019,0.031l-0.022,0.029l-0.026,0.026l-0.028,0.022l-0.031,0.019l-0.033,0.015l-0.035,0.011l-11.525,2.882l-0.035,0.007l-0.036,0.002l-0.037,-0.002l-0.035,-0.006l-0.035,-0.011l-0.033,-0.015l-0.031,-0.018l-0.029,-0.023l-0.025,-0.025l-0.023,-0.029l-0.019,-0.03l-0.015,-0.033l-0.011,-0.035l-0.006,-0.036l-0.002,-0.036l0.002,-0.036l0.006,-0.036l0.011,-0.034l0.014,-0.033l0.019,-0.031l0.022,-0.029l0.026,-0.026l0.028,-0.022l0.031,-0.019l0.033,-0.015l0.035,-0.011l11.525,-2.882l0.035,-0.007l0.036,-0.002l0.037,0.002Z"/></g><path d="M15.217,89.828l11.242,4.164l3.559,0.003l11.264,-3.736l-1.003,11.886l-10.252,-5.047l-3.563,-0.025l-10.166,5.079l-1.081,-12.324Z"/><path d="M30.69,93.024c0,-0.658 -0.534,-1.192 -1.191,-1.192l-2.383,0c-0.658,0 -1.192,0.534 -1.192,1.192c-0.929,1.73 -0.863,3.388 0,4.99c0,0.657 0.534,1.191 1.192,1.191l2.383,0c0.657,0 1.191,-0.534 1.191,-1.191c0.68,-1.698 0.771,-3.366 0,-4.99Z"/><path d="M2.421,46.558l4.599,13.847l3.624,-4.751l-8.223,-9.096Z"/><path d="M53.93,47.616l-4.599,13.847l-3.624,-4.751l8.223,-9.096Z"/></g></g></svg>