<?xml version="1.0" encoding="UTF-8" standalone="no"?><!DOCTYPE svg PUBLIC "-//W3C//DTD SVG 1.1//EN" "http://www.w3.org/Graphics/SVG/1.1/DTD/svg11.dtd"><svg width="100%" height="100%" viewBox="0 0 369 63" version="1.1" xmlns="http://www.w3.org/2000/svg" xmlns:xlink="http://www.w3.org/1999/xlink" xml:space="preserve" style="fill-rule:evenodd;clip-rule:evenodd;stroke-linecap:round;stroke-linejoin:round;stroke-miterlimit:1.5;"><g id="logo-new"><g id="katt"><ellipse cx="204.07" cy="36.424" rx="33.762" ry="25.883" style="fill:#808080;"/><path d="M176.755,21.687l-6.447,-21.573l22.965,13.048l-16.518,8.525Z" style="fill:#808080;"/><path d="M231.385,21.687l6.447,-21.573l-22.965,13.048l16.518,8.525Z" style="fill:#808080;"/><path d="M198.08,37.636c-0.193,-0.212 -0.242,-0.518 -0.126,-0.78c0.116,-0.262 0.375,-0.432 0.662,-0.432l10.338,0c0.32,0 0.611,0.187 0.746,0.478c0.134,0.291 0.086,0.633 -0.122,0.877c-1.909,2.233 -5.508,6.443 -5.508,6.443c0,0 -3.997,-4.395 -5.99,-6.586Z"/><g><ellipse cx="191.206" cy="28.879" rx="5.773" ry="2.959" style="fill:#fff;stroke:#000;stroke-width:0.75px;"/><ellipse cx="192.604" cy="28.189" rx="2.307" ry="2.268" style="stroke:#000;stroke-width:0.75px;"/></g><g><ellipse cx="216.509" cy="28.879" rx="5.773" ry="2.959" style="fill:#fff;stroke:#000;stroke-width:0.75px;"/><ellipse cx="215.05" cy="28.189" rx="2.247" ry="2.268" style="stroke:#000;stroke-width:0.75px;"/></g><path d="M214.613,42.119c0,4.32 -4.625,7.827 -10.322,7.827c-5.697,0 -11.19,-3.507 -11.19,-7.827" style="fill:none;stroke:#000;stroke-width:2px;"/><path d="M204.07,42.135l0,7.827" style="fill:none;stroke:#000;stroke-width:0.75px;"/><g><path d="M210.736,36.424l16.286,-4.586" style="fill:none;stroke:#fff;stroke-width:0.6px;"/><path d="M210.736,37.515l19.15,-1.091" style="fill:none;stroke:#fff;stroke-width:0.6px;"/><path d="M210.736,38.677l15.274,3.458" style="fill:none;stroke:#fff;stroke-width:0.6px;"/></g><g><path d="M196.979,36.424l-16.286,-4.586" style="fill:none;stroke:#fff;stroke-width:0.6px;"/><path d="M196.979,37.515l-19.151,-1.091" style="fill:none;stroke:#fff;stroke-width:0.6px;"/><path d="M196.979,38.677l-15.274,3.458" style="fill:none;stroke:#fff;stroke-width:0.6px;"/></g></g><g transform="matrix(0.106231,0,0,0.106231,-157.107,-101.862)"><path d="M1486.68,1169.38c0,60.8 35.2,87.467 58.134,99.734c22.4,12.266 80,28.8 91.2,34.133c17.6,8 27.733,19.2 27.733,32.533c0,12.267 -12.8,34.667 -52.8,34.667c-40.533,0 -56.533,-13.333 -76.8,-28.267l-54.933,71.467c16.533,11.733 56,46.4 138.666,46.4c108.8,0 149.334,-69.867 149.334,-133.333c0,-58.667 -32.534,-82.667 -51.2,-94.934c-17.6,-12.266 -67.2,-27.2 -93.334,-36.266c-26.666,-8.534 -32.533,-24.534 -32.533,-34.667c0,-10.133 11.2,-29.867 45.333,-29.867c31.467,0 51.2,15.467 69.334,28.8l52.266,-66.666c-38.933,-30.934 -82.133,-45.334 -125.866,-45.334c-51.734,0 -144.534,30.4 -144.534,121.6Z" style="fill:#e6e6e6;fill-rule:nonzero;"/><path d="M1810.95,1129.38l0,51.2l-31.467,0l0,80l31.467,0c0,42.134 0,89.6 0,124.8c0,35.2 19.733,68.8 66.133,68.8c41.6,0 67.2,-6.4 67.2,-6.4l0,-73.6c-14.4,0 -36.266,4.8 -36.266,-19.2l0,-94.4l36.266,0l0,-80l-36.266,0l0,-88l-97.067,36.8Z" style="fill:#e6e6e6;fill-rule:nonzero;"/><path d="M2277.62,1431.78l0,-251.733l-97.067,0l0,185.6c0,0 -19.2,20.267 -52.267,20.267c-40.533,0 -42.666,-37.334 -42.666,-59.734c0,-22.4 0,-89.066 0,-146.133l-97.067,0c0,61.333 0,94.933 0,179.2c0,84.267 62.933,103.467 104.533,103.467c46.934,0 57.6,-9.6 87.467,-24.534l0,20.267l97.067,-26.667Z" style="fill:#e6e6e6;fill-rule:nonzero;"/><path d="M2318.68,1314.44c0,108.8 86.4,148.267 137.6,148.267c48,0 68.8,-21.334 84.267,-33.067l0,24.533l97.067,0l0,-452.266l-97.067,25.6l0,179.2c-16,-14.934 -33.067,-36.267 -82.133,-36.267c-61.867,0 -139.734,43.2 -139.734,144Zm99.2,2.133c0,-34.666 29.334,-62.4 64,-61.866c34.134,0.533 61.867,27.733 61.867,61.866c0,34.134 -27.733,61.334 -61.867,61.867c-34.666,0.533 -64,-27.2 -64,-61.867Z" style="fill:#e6e6e6;fill-rule:nonzero;"/><path d="M2691.48,1180.04c0,0 0,248.533 0,274.133l97.067,0c0,-46.933 0,-298.666 0,-298.666l-97.067,24.533Zm-17.066,-152.533l66.133,92.8l67.2,-92.8l-133.333,0Z" style="fill:#e6e6e6;fill-rule:nonzero;"/><path d="M2999.75,1251.51c34.133,0 62.933,32 62.933,66.133c0,34.133 -29.866,65.6 -64,65.067c-34.133,-0.534 -61.866,-32 -61.866,-66.134c0,-34.133 28.8,-65.066 62.933,-65.066Zm1.067,-80c-83.2,-2.667 -156.8,65.6 -156.8,146.133c0,80.533 76.266,146.133 156.8,146.133c80.533,0 146.133,-65.6 146.133,-146.133c0,-80.533 -65.6,-143.467 -146.133,-146.133Z" style="fill:#e6e6e6;fill-rule:nonzero;"/><path d="M3866.42,1386.98l35.733,67.2l113.6,0l-211.2,-409.6l-211.2,409.6l110.4,0l37.333,-67.733c0.534,0 64,67.733 64,67.733l61.334,-67.2Zm-114.667,-17.6l53.333,-97.6l50.667,97.6l-104,0Z" style="fill:#e6e6e6;fill-rule:nonzero;"/><path d="M4047.75,1454.17l97.067,0l0,-451.2l-97.067,24.534l0,426.666Z" style="fill:#e6e6e6;fill-rule:nonzero;"/><path d="M4206.15,1180.04c0,0 0,248.533 0,274.133l97.067,0c0,-46.933 0,-298.666 0,-298.666l-97.067,24.533Zm-17.067,-152.533l66.134,92.8l67.2,-92.8l-133.334,0Z" style="fill:#e6e6e6;fill-rule:nonzero;"/><path d="M4501.62,1171.51c-83.2,0 -155.734,64 -155.734,147.2c0,71.466 60.267,145.066 152.534,145.066c49.6,0 98.666,-23.466 128.533,-72.533l-74.133,-40.533c-12.267,21.333 -33.067,30.933 -54.4,30.933c-29.867,0 -59.734,-29.867 -59.734,-65.067c0,-35.2 32,-60.8 58.667,-60.8c30.933,0 43.2,11.2 55.467,30.934l73.066,-49.067c-18.133,-30.4 -61.866,-66.133 -124.266,-66.133Z" style="fill:#e6e6e6;fill-rule:nonzero;"/><path d="M4845.08,1274.98l-98.666,49.067c-0.534,-2.667 -0.534,-4.8 -0.534,-7.467c0,-34.133 28.8,-60.8 62.934,-60.8c28.266,0 33.066,14.934 36.266,19.2Zm102.4,-5.866c-18.666,-62.934 -74.133,-95.467 -137.6,-97.6c-83.2,-2.667 -156.8,65.6 -156.8,146.133c0,80.533 73.6,148.8 156.8,146.133c49.067,-1.6 94.934,-25.6 124.8,-72.533l-74.666,-40.533c-12.267,19.733 -33.067,31.466 -52.267,31.466c-19.733,0 -29.867,-5.866 -37.867,-14.933l179.734,-90.133c0,0 -1.067,-4.8 -2.134,-8Z" style="fill:#e6e6e6;fill-rule:nonzero;"/></g></g></svg>