<?xml version="1.0" encoding="UTF-8" standalone="no"?><!DOCTYPE svg PUBLIC "-//W3C//DTD SVG 1.1//EN" "http://www.w3.org/Graphics/SVG/1.1/DTD/svg11.dtd"><svg width="100%" height="100%" viewBox="0 0 380 167" version="1.1" xmlns="http://www.w3.org/2000/svg" xmlns:xlink="http://www.w3.org/1999/xlink" xml:space="preserve" style="fill-rule:evenodd;clip-rule:evenodd;stroke-linecap:round;stroke-linejoin:round;stroke-miterlimit:1.5;"><g id="logo-2rad-blue"><g transform="matrix(0.177693,0,0,0.177693,-255.539,-183.747)"><path d="M1841.88,1185.91l-60.266,4.8c-2.489,-13.867 -7.111,-25.423 -13.867,-34.667c-6.756,-9.245 -15.2,-16.622 -25.333,-22.133c-10.134,-5.512 -21.867,-9.512 -35.2,-12c-13.334,-2.489 -27.645,-3.734 -42.934,-3.734c-8.177,0 -15.822,0.445 -22.933,1.334c-7.111,0.888 -13.333,2.488 -18.667,4.8c-5.333,2.311 -9.6,5.6 -12.8,9.866c-3.2,4.267 -4.8,9.6 -4.8,16c0,9.956 5.511,17.511 16.534,22.667c11.022,5.155 25.066,9.511 42.133,13.067c17.067,3.555 36,7.111 56.8,10.666c20.8,3.556 40.978,8.711 60.533,15.467c28.089,9.6 49.334,23.911 63.734,42.933c14.4,19.022 21.6,44.534 21.6,76.534c0,20.977 -3.823,39.555 -11.467,55.733c-7.644,16.178 -18.222,29.867 -31.733,41.067c-13.511,11.2 -29.423,19.733 -47.734,25.6c-18.311,5.866 -38.133,8.8 -59.466,8.8c-21.689,0 -39.645,-1.423 -53.867,-4.267c-14.222,-2.845 -26.044,-6.045 -35.467,-9.6c-9.422,-3.556 -17.333,-6.756 -23.733,-9.6c-6.4,-2.845 -12.444,-4.267 -18.133,-4.267c-4.978,0 -9.334,1.422 -13.067,4.267c-3.733,2.844 -7.022,7.822 -9.867,14.933l-60.266,0l0,-136l60.266,-3.2c2.134,27.734 14.578,47.645 37.334,59.734c22.755,12.088 52.8,18.133 90.133,18.133c21.333,0 38.311,-2.845 50.933,-8.533c12.623,-5.689 18.934,-16.712 18.934,-33.067c0,-9.956 -4.711,-17.511 -14.134,-22.667c-9.422,-5.155 -21.6,-9.333 -36.533,-12.533c-14.933,-3.2 -31.644,-6.133 -50.133,-8.8c-18.489,-2.667 -36.8,-6.489 -54.934,-11.467c-19.911,-5.689 -36.444,-12.533 -49.6,-20.533c-13.155,-8 -23.644,-17.333 -31.466,-28c-7.823,-10.667 -13.334,-22.845 -16.534,-36.533c-3.2,-13.689 -4.8,-29.067 -4.8,-46.134c0,-15.644 2.667,-30.489 8,-44.533c5.334,-14.045 13.511,-26.311 24.534,-36.8c11.022,-10.489 24.889,-18.756 41.6,-24.8c16.711,-6.045 36.622,-9.067 59.733,-9.067c20.622,0 37.778,1.334 51.467,4c13.689,2.667 25.066,5.689 34.133,9.067c9.067,3.378 16.533,6.4 22.4,9.067c5.867,2.666 11.289,4 16.267,4c7.111,0 12.711,-1.334 16.8,-4c4.089,-2.667 8.266,-7.2 12.533,-13.6l53.333,0l0,128Z" style="fill:#21caf1;fill-rule:nonzero;"/><path d="M2044.55,1457.91c-19.556,0 -35.911,-2.045 -49.067,-6.134c-13.155,-4.089 -23.733,-9.866 -31.733,-17.333c-8,-7.467 -13.689,-16.445 -17.067,-26.933c-3.377,-10.489 -5.066,-22.134 -5.066,-34.934l0,-143.466l-45.334,0l0,-39.467c9.6,-0.711 19.378,-2.133 29.334,-4.267c9.955,-2.133 18.933,-5.866 26.933,-11.2c8,-5.333 14.578,-12.8 19.733,-22.4c5.156,-9.6 7.734,-22.044 7.734,-37.333l0,-11.733l83.2,-3.734l0,83.734l68.8,0l-2.667,52.266c-9.6,-2.133 -19.911,-3.644 -30.933,-4.533c-11.023,-0.889 -22.756,-1.333 -35.2,-1.333l0,154.133c0,8.178 1.244,14.222 3.733,18.133c2.489,3.911 7.111,5.867 13.867,5.867c6.755,0 11.377,-1.956 13.866,-5.867c2.489,-3.911 3.734,-9.955 3.734,-18.133l0,-20.267l36.8,0l0,10.134c0,25.244 -7.023,45.688 -21.067,61.333c-14.044,15.644 -37.244,23.467 -69.6,23.467Z" style="fill:#21caf1;fill-rule:nonzero;"/><path d="M2334.68,1182.71l0,132.8c0,44.444 9.956,66.666 29.867,66.666c11.733,0 20.978,-5.066 27.733,-15.2c6.756,-10.133 12.089,-25.333 16,-45.6l0,-59.2c0,-8.178 -2.666,-14.311 -8,-18.4c-5.333,-4.089 -14.044,-6.133 -26.133,-6.133l0,-54.933l153.067,0l0,192.533c0,16 14.755,24 44.266,24l0,54.933l-163.2,0l0,-54.4c-11.733,20.267 -26.044,35.289 -42.933,45.067c-16.889,9.778 -38.311,14.667 -64.267,14.667c-28.8,0 -49.955,-6.578 -63.466,-19.734c-13.511,-13.155 -20.267,-33.066 -20.267,-59.733l0,-118.4c0,-16 -15.111,-24 -45.333,-24l0,-54.933l162.666,0Z" style="fill:#21caf1;fill-rule:nonzero;"/><path d="M2607.75,1317.64c0,-26.311 3.111,-48.711 9.333,-67.2c6.223,-18.489 14.934,-33.511 26.134,-45.067c11.2,-11.555 24.711,-20 40.533,-25.333c15.822,-5.333 33.333,-8 52.533,-8c14.223,0 27.645,1.778 40.267,5.333c12.622,3.556 23.378,9.245 32.267,17.067l0,-72c0,-16 -14.756,-24 -44.267,-24l0,-54.933l166.4,0l0,331.2c0,16 15.111,24 45.333,24l0,55.466l-148.8,0l-3.733,-44.266c-4.267,8.533 -9.956,16.177 -17.067,22.933c-7.111,6.755 -15.2,12.355 -24.266,16.8c-9.067,4.444 -18.667,7.822 -28.8,10.133c-10.134,2.311 -20.534,3.467 -31.2,3.467c-16.711,0 -32.089,-2.667 -46.134,-8c-14.044,-5.333 -26.133,-13.778 -36.266,-25.333c-10.134,-11.556 -18.045,-26.578 -23.734,-45.067c-5.689,-18.489 -8.533,-40.889 -8.533,-67.2Zm168,71.467c7.822,0 14.489,-1.245 20,-3.734c5.511,-2.489 9.956,-6.844 13.333,-13.066c3.378,-6.223 5.778,-14.4 7.2,-24.534c1.423,-10.133 2.134,-22.666 2.134,-37.6c0,-14.933 -0.711,-27.466 -2.134,-37.6c-1.422,-10.133 -3.822,-18.311 -7.2,-24.533c-3.377,-6.222 -7.822,-10.578 -13.333,-13.067c-5.511,-2.489 -12.178,-3.733 -20,-3.733c-7.822,0 -14.578,1.244 -20.267,3.733c-5.689,2.489 -10.4,6.845 -14.133,13.067c-3.733,6.222 -6.578,14.4 -8.533,24.533c-1.956,10.134 -2.934,22.667 -2.934,37.6c0,14.934 0.978,27.467 2.934,37.6c1.955,10.134 4.8,18.311 8.533,24.534c3.733,6.222 8.444,10.577 14.133,13.066c5.689,2.489 12.445,3.734 20.267,3.734Z" style="fill:#21caf1;fill-rule:nonzero;"/><path d="M3178.42,1374.71c0,16 14.933,24 44.8,24l0,55.466l-211.2,0l0,-55.466c29.866,0 44.8,-8 44.8,-24l0,-112.534c0,-16.355 -14.934,-24.533 -44.8,-24.533l0,-54.933l166.4,0l0,192Zm-120.534,-274.667c0,-8.533 1.6,-16.533 4.8,-24c3.2,-7.467 7.645,-14.045 13.334,-19.733c5.689,-5.689 12.266,-10.134 19.733,-13.334c7.467,-3.2 15.467,-4.8 24,-4.8c8.533,0 16.533,1.6 24,4.8c7.467,3.2 14.044,7.645 19.733,13.334c5.689,5.688 10.134,12.266 13.334,19.733c3.2,7.467 4.8,15.467 4.8,24c0,8.533 -1.6,16.533 -4.8,24c-3.2,7.467 -7.645,14.044 -13.334,19.733c-5.689,5.689 -12.266,10.134 -19.733,13.334c-7.467,3.2 -15.467,4.8 -24,4.8c-8.533,0 -16.533,-1.6 -24,-4.8c-7.467,-3.2 -14.044,-7.645 -19.733,-13.334c-5.689,-5.689 -10.134,-12.266 -13.334,-19.733c-3.2,-7.467 -4.8,-15.467 -4.8,-24Z" style="fill:#21caf1;fill-rule:nonzero;"/><path d="M3572.02,1317.11c0,49.066 -13.956,85.688 -41.867,109.866c-27.911,24.178 -66.756,36.267 -116.533,36.267c-20.267,0 -39.645,-1.956 -58.134,-5.867c-18.489,-3.911 -34.755,-11.022 -48.8,-21.333c-14.044,-10.311 -25.155,-24.533 -33.333,-42.667c-8.178,-18.133 -12.267,-41.422 -12.267,-69.866c0,-52.267 13.334,-90.578 40,-114.934c26.667,-24.355 65.956,-36.533 117.867,-36.533c20.978,0 40.8,2.133 59.467,6.4c18.666,4.267 34.933,11.822 48.8,22.667c13.866,10.844 24.8,25.6 32.8,44.266c8,18.667 12,42.578 12,71.734Zm-156.8,86.933c6.755,0 12.355,-1.156 16.8,-3.467c4.444,-2.311 8,-6.578 10.666,-12.8c2.667,-6.222 4.623,-14.844 5.867,-25.866c1.244,-11.023 1.867,-25.245 1.867,-42.667c0,-18.133 -0.534,-32.889 -1.6,-44.267c-1.067,-11.378 -2.934,-20.266 -5.6,-26.666c-2.667,-6.4 -6.134,-10.756 -10.4,-13.067c-4.267,-2.311 -9.6,-3.467 -16,-3.467c-6.045,0 -11.289,1.067 -15.734,3.2c-4.444,2.134 -8.089,6.045 -10.933,11.734c-2.844,5.688 -4.978,13.6 -6.4,23.733c-1.422,10.133 -2.133,23.2 -2.133,39.2c0,19.911 0.444,36.089 1.333,48.533c0.889,12.445 2.578,22.045 5.067,28.8c2.489,6.756 5.866,11.289 10.133,13.6c4.267,2.311 9.956,3.467 17.067,3.467Z" style="fill:#21caf1;fill-rule:nonzero;"/><path d="M1967.22,1868.85c16,0 27.2,-1.334 33.6,-4c6.4,-2.667 10.666,-6.489 12.8,-11.467l105.6,-324.8l137.6,0l98.133,324.267c4.267,10.666 18.489,16 42.667,16l0,56l-232.534,0l0,-56l35.2,0c10.311,0 15.467,-3.022 15.467,-9.067c0,-1.067 -0.178,-2.133 -0.533,-3.2c-0.356,-1.067 -0.711,-2.311 -1.067,-3.733l-8,-28.267l-124.8,0l-7.467,24c-1.066,2.845 -1.6,5.333 -1.6,7.467c0,8.533 8,12.8 24,12.8l28.267,0l0,56l-156.8,0l-0.533,-56Zm130.666,-98.667l93.334,0l-43.734,-160l-49.6,160Z" style="fill:#21caf1;fill-rule:nonzero;"/><path d="M2604.55,1845.38c0,16 14.933,24 44.8,24l0,55.467l-211.2,0l0,-55.467c29.867,0 44.8,-8 44.8,-24l0,-252.267c0,-16 -14.933,-24 -44.8,-24l0,-54.933l166.4,0l0,331.2Z" style="fill:#21caf1;fill-rule:nonzero;"/><path d="M2856.82,1845.38c0,16 14.933,24 44.8,24l0,55.467l-211.2,0l0,-55.467c29.866,0 44.8,-8 44.8,-24l0,-112.533c0,-16.356 -14.934,-24.534 -44.8,-24.534l0,-54.933l166.4,0l0,192Zm-120.534,-274.667c0,-8.533 1.6,-16.533 4.8,-24c3.2,-7.466 7.645,-14.044 13.334,-19.733c5.689,-5.689 12.266,-10.133 19.733,-13.333c7.467,-3.2 15.467,-4.8 24,-4.8c8.533,0 16.533,1.6 24,4.8c7.467,3.2 14.044,7.644 19.733,13.333c5.689,5.689 10.134,12.267 13.334,19.733c3.2,7.467 4.8,15.467 4.8,24c0,8.534 -1.6,16.534 -4.8,24c-3.2,7.467 -7.645,14.045 -13.334,19.734c-5.689,5.689 -12.266,10.133 -19.733,13.333c-7.467,3.2 -15.467,4.8 -24,4.8c-8.533,0 -16.533,-1.6 -24,-4.8c-7.467,-3.2 -14.044,-7.644 -19.733,-13.333c-5.689,-5.689 -10.134,-12.267 -13.334,-19.734c-3.2,-7.466 -4.8,-15.466 -4.8,-24Z" style="fill:#21caf1;fill-rule:nonzero;"/><path d="M3166.68,1704.58c-3.911,-6.4 -10.133,-10.933 -18.666,-13.6c-8.534,-2.667 -17.956,-4 -28.267,-4c-8.533,0 -16.711,2.045 -24.533,6.133c-7.823,4.089 -14.756,10.045 -20.8,17.867c-6.045,7.822 -10.845,17.333 -14.4,28.533c-3.556,11.2 -5.334,23.912 -5.334,38.134c0,33.422 4.445,57.955 13.334,73.6c8.889,15.644 24.889,23.466 48,23.466c13.511,0 25.333,-3.733 35.466,-11.2c10.134,-7.466 16.089,-19.2 17.867,-35.2l56.533,3.734c-2.133,12.444 -6.133,24.711 -12,36.8c-5.866,12.089 -13.777,22.933 -23.733,32.533c-9.956,9.6 -22.311,17.422 -37.067,23.467c-14.755,6.044 -31.911,9.066 -51.466,9.066c-24.889,0 -47.556,-2.577 -68,-7.733c-20.445,-5.155 -38.045,-13.511 -52.8,-25.067c-14.756,-11.555 -26.223,-26.4 -34.4,-44.533c-8.178,-18.133 -12.267,-40.178 -12.267,-66.133c0,-19.556 3.022,-38.311 9.067,-56.267c6.044,-17.955 15.377,-33.689 28,-47.2c12.622,-13.511 28.8,-24.267 48.533,-32.267c19.733,-8 43.289,-12 70.667,-12c18.844,0 36.444,1.512 52.8,4.534c16.355,3.022 30.489,8.089 42.4,15.2c11.911,7.111 21.244,16.355 28,27.733c6.755,11.378 10.133,25.6 10.133,42.667c0,13.511 -3.822,25.244 -11.467,35.2c-7.644,9.955 -20,14.933 -37.066,14.933c-15.289,0 -26.667,-3.822 -34.134,-11.467c-7.466,-7.644 -11.2,-16.8 -11.2,-27.466c0,-9.245 3.289,-17.956 9.867,-26.134c6.578,-8.177 15.556,-12.622 26.933,-13.333Z" style="fill:#21caf1;fill-rule:nonzero;"/><path d="M3390.15,1794.72c1.067,28.8 5.689,49.334 13.867,61.6c8.177,12.267 21.333,18.4 39.466,18.4c13.511,0 26.134,-4 37.867,-12c11.733,-8 19.378,-19.466 22.933,-34.4l56.534,3.734c-2.134,12.8 -6.4,25.333 -12.8,37.6c-6.4,12.266 -14.934,23.111 -25.6,32.533c-10.667,9.422 -23.556,17.067 -38.667,22.933c-15.111,5.867 -32.444,8.8 -52,8.8c-22.4,0 -43.467,-2.4 -63.2,-7.2c-19.733,-4.8 -36.978,-12.8 -51.733,-24c-14.756,-11.2 -26.311,-26.133 -34.667,-44.8c-8.356,-18.666 -12.533,-41.688 -12.533,-69.066c0,-46.578 13.155,-82.578 39.466,-108c26.311,-25.422 64.534,-38.134 114.667,-38.134c25.244,0 47.022,2.756 65.333,8.267c18.311,5.511 33.511,14.311 45.6,26.4c12.089,12.089 20.978,27.822 26.667,47.2c5.689,19.378 8.533,42.756 8.533,70.133l-179.733,0Zm82.667,-45.333c0,-6.4 -0.623,-13.244 -1.867,-20.533c-1.244,-7.289 -3.467,-14.045 -6.667,-20.267c-3.2,-6.222 -7.466,-11.378 -12.8,-15.467c-5.333,-4.088 -11.911,-6.133 -19.733,-6.133c-23.822,0 -37.333,20.8 -40.533,62.4l81.6,0Z" style="fill:#21caf1;fill-rule:nonzero;"/></g><g id="katt"><path d="M11.639,108.293l-11.552,-2.186l10.212,4.948l-6.888,-0.926l5.962,2.828l-8.902,-0.095l7.912,3.885l4.646,-3.942l-1.39,-4.512Z" style="fill:#a7a7a7;"/><path d="M89.022,108.293l11.552,-2.186l-10.211,4.948l6.888,-0.926l-5.963,2.828l8.902,-0.095l-7.911,3.885l-4.647,-3.942l1.39,-4.512Z" style="fill:#a7a7a7;"/><ellipse cx="50.255" cy="118.883" rx="42.361" ry="36.09" style="fill:#a7a7a7;"/><path d="M12.918,104.757l-8.989,-30.08l32.021,18.193l-23.032,11.887Z" style="fill:#a7a7a7;"/><path d="M89.093,104.757l8.988,-30.08l-32.021,18.193l23.033,11.887Z" style="fill:#a7a7a7;"/><path d="M46.882,126.917c-1.11,-1.546 -1.261,-3.583 -0.392,-5.276c0.869,-1.693 2.612,-2.758 4.514,-2.758l0.004,0c1.793,0 3.436,1.002 4.258,2.596c0.822,1.594 0.685,3.513 -0.355,4.974c-2.168,3.045 -4.164,5.85 -4.164,5.85c0,0 -1.813,-2.526 -3.865,-5.386Z"/><g><ellipse cx="33.068" cy="107.445" rx="8.049" ry="5.043" style="fill:#fff;stroke:#000;stroke-width:1.25px;"/><ellipse cx="35.017" cy="107.4" rx="3.217" ry="3.163" style="stroke:#000;stroke-width:1.25px;"/></g><g><ellipse cx="68.349" cy="107.445" rx="8.049" ry="5.043" style="fill:#fff;stroke:#000;stroke-width:1.25px;"/><ellipse cx="70.731" cy="107.4" rx="3.133" ry="3.163" style="stroke:#000;stroke-width:1.25px;"/></g><path d="M65.232,126.007l0.137,0.019l0.134,0.031l0.132,0.042l0.128,0.052l0.123,0.063l0.118,0.073l0.111,0.083l0.103,0.091l0.096,0.099l0.088,0.107l0.078,0.114l0.069,0.12l0.058,0.126l0.048,0.129l0.037,0.133l0.026,0.136l0.015,0.138l0.003,0.138l-0.008,0.138l-0.02,0.137l-0.03,0.135l-0.042,0.131l-0.053,0.128l-0.065,0.143l-0.069,0.146l-0.069,0.145l-0.069,0.144l-0.07,0.142l-0.071,0.141l-0.072,0.14l-0.072,0.138l-0.073,0.138l-0.073,0.136l-0.074,0.135l-0.075,0.133l-0.075,0.133l-0.077,0.131l-0.077,0.13l-0.077,0.128l-0.079,0.128l-0.079,0.126l-0.08,0.125l-0.081,0.124l-0.082,0.122l-0.083,0.122l-0.083,0.12l-0.084,0.119l-0.086,0.117l-0.086,0.117l-0.087,0.115l-0.087,0.114l-0.089,0.112l-0.09,0.112l-0.091,0.11l-0.091,0.109l-0.093,0.108l-0.093,0.106l-0.095,0.105l-0.095,0.104l-0.096,0.103l-0.098,0.101l-0.098,0.1l-0.099,0.099l-0.101,0.098l-0.101,0.096l-0.103,0.095l-0.103,0.093l-0.105,0.093l-0.105,0.09l-0.106,0.09l-0.108,0.088l-0.108,0.087l-0.11,0.086l-0.11,0.084l-0.111,0.083l-0.113,0.082l-0.113,0.08l-0.115,0.079l-0.115,0.077l-0.117,0.076l-0.117,0.075l-0.119,0.074l-0.119,0.072l-0.12,0.07l-0.122,0.07l-0.122,0.068l-0.123,0.066l-0.125,0.066l-0.125,0.064l-0.126,0.062l-0.127,0.062l-0.128,0.06l-0.129,0.059l-0.13,0.057l-0.131,0.056l-0.131,0.055l-0.133,0.053l-0.134,0.053l-0.134,0.051l-0.136,0.049l-0.136,0.049l-0.138,0.047l-0.138,0.046l-0.139,0.045l-0.14,0.044l-0.141,0.042l-0.142,0.042l-0.144,0.04l-0.143,0.039l-0.145,0.037l-0.146,0.037l-0.147,0.036l-0.148,0.034l-0.149,0.034l-0.15,0.032l-0.15,0.031l-0.152,0.03l-0.153,0.029l-0.154,0.028l-0.155,0.028l-0.156,0.026l-0.156,0.025l-0.158,0.024l-0.159,0.023l-0.161,0.022l-0.161,0.021l-0.162,0.02l-0.163,0.019l-0.165,0.019l-0.166,0.017l-0.166,0.017l-0.168,0.015l-0.169,0.015l-0.17,0.014l-0.172,0.013l-0.172,0.012l-0.174,0.011l-0.175,0.011l-0.176,0.009l-0.178,0.009l-0.178,0.008l-0.18,0.007l-0.182,0.007l-0.182,0.005l-0.184,0.005l-0.185,0.004l-0.186,0.003l-0.188,0.003l-0.189,0.002l-0.19,0.001l-0.193,0l-0.378,-0.001l-0.373,-0.003l-0.187,-0.002l-0.185,-0.003l-0.183,-0.004l-0.183,-0.004l-0.181,-0.004l-0.181,-0.006l-0.179,-0.006l-0.178,-0.006l-0.177,-0.007l-0.176,-0.008l-0.176,-0.009l-0.174,-0.009l-0.173,-0.01l-0.172,-0.011l-0.171,-0.011l-0.17,-0.012l-0.169,-0.013l-0.169,-0.014l-0.167,-0.014l-0.166,-0.016l-0.165,-0.016l-0.165,-0.017l-0.163,-0.017l-0.162,-0.019l-0.162,-0.02l-0.16,-0.02l-0.16,-0.021l-0.159,-0.023l-0.158,-0.023l-0.156,-0.024l-0.156,-0.025l-0.155,-0.026l-0.155,-0.028l-0.153,-0.028l-0.152,-0.029l-0.152,-0.031l-0.15,-0.031l-0.15,-0.033l-0.149,-0.033l-0.148,-0.035l-0.147,-0.036l-0.146,-0.037l-0.146,-0.039l-0.144,-0.039l-0.144,-0.041l-0.142,-0.043l-0.142,-0.043l-0.141,-0.045l-0.14,-0.046l-0.14,-0.047l-0.138,-0.049l-0.137,-0.05l-0.137,-0.052l-0.136,-0.053l-0.134,-0.054l-0.134,-0.056l-0.133,-0.057l-0.132,-0.059l-0.131,-0.06l-0.131,-0.062l-0.129,-0.064l-0.128,-0.065l-0.127,-0.066l-0.126,-0.068l-0.125,-0.07l-0.125,-0.072l-0.123,-0.073l-0.122,-0.074l-0.121,-0.077l-0.12,-0.078l-0.119,-0.079l-0.117,-0.081l-0.117,-0.083l-0.115,-0.085l-0.114,-0.086l-0.114,-0.088l-0.111,-0.09l-0.111,-0.091l-0.109,-0.094l-0.109,-0.094l-0.106,-0.097l-0.106,-0.098l-0.105,-0.1l-0.102,-0.101l-0.102,-0.104l-0.101,-0.105l-0.099,-0.106l-0.097,-0.108l-0.097,-0.11l-0.095,-0.111l-0.093,-0.114l-0.093,-0.114l-0.091,-0.117l-0.089,-0.118l-0.088,-0.119l-0.087,-0.122l-0.085,-0.122l-0.084,-0.125l-0.083,-0.126l-0.081,-0.127l-0.08,-0.129l-0.079,-0.131l-0.077,-0.132l-0.076,-0.134l-0.074,-0.135l-0.073,-0.137l-0.072,-0.139l-0.071,-0.14l-0.069,-0.141l-0.067,-0.144l-0.067,-0.144l-0.065,-0.147l-0.064,-0.147l-0.063,-0.15l-0.062,-0.151l-0.06,-0.152l-0.059,-0.155l-0.057,-0.155l-0.057,-0.158l-0.055,-0.159l-0.055,-0.16l-0.053,-0.162l-0.051,-0.164l-0.049,-0.158l-0.035,-0.134l-0.024,-0.136l-0.012,-0.138l-0.001,-0.138l0.01,-0.138l0.022,-0.137l0.033,-0.134l0.044,-0.131l0.054,-0.127l0.065,-0.122l0.075,-0.116l0.084,-0.11l0.093,-0.103l0.101,-0.094l0.108,-0.086l0.115,-0.076l0.122,-0.067l0.126,-0.057l0.13,-0.045l0.134,-0.035l0.136,-0.024l0.138,-0.013l0.138,-0.001l0.138,0.011l0.136,0.021l0.135,0.033l0.131,0.044l0.127,0.055l0.122,0.065l0.116,0.074l0.11,0.084l0.102,0.093l0.095,0.101l0.086,0.109l0.076,0.115l0.067,0.121l0.056,0.126l0.046,0.13l0.044,0.144l0.042,0.134l0.044,0.132l0.043,0.13l0.045,0.128l0.045,0.125l0.046,0.124l0.047,0.122l0.047,0.119l0.048,0.118l0.048,0.116l0.049,0.113l0.05,0.112l0.051,0.11l0.051,0.108l0.052,0.106l0.052,0.104l0.053,0.103l0.054,0.1l0.054,0.099l0.055,0.097l0.056,0.095l0.056,0.094l0.057,0.092l0.057,0.09l0.058,0.088l0.059,0.087l0.06,0.086l0.06,0.083l0.06,0.083l0.061,0.08l0.062,0.08l0.063,0.077l0.063,0.077l0.064,0.075l0.065,0.073l0.065,0.073l0.066,0.071l0.067,0.069l0.067,0.069l0.068,0.067l0.069,0.066l0.07,0.065l0.071,0.064l0.071,0.062l0.072,0.062l0.074,0.06l0.074,0.06l0.075,0.058l0.076,0.058l0.076,0.056l0.078,0.055l0.079,0.055l0.08,0.053l0.081,0.053l0.082,0.051l0.083,0.051l0.084,0.05l0.085,0.049l0.087,0.048l0.087,0.048l0.089,0.046l0.09,0.046l0.091,0.045l0.093,0.044l0.093,0.043l0.095,0.042l0.097,0.041l0.097,0.041l0.099,0.04l0.1,0.039l0.102,0.038l0.102,0.038l0.105,0.037l0.105,0.036l0.107,0.035l0.108,0.034l0.11,0.034l0.111,0.033l0.113,0.032l0.113,0.031l0.116,0.03l0.116,0.03l0.119,0.029l0.119,0.028l0.121,0.027l0.123,0.027l0.123,0.026l0.126,0.025l0.126,0.024l0.128,0.024l0.13,0.023l0.131,0.022l0.132,0.021l0.134,0.021l0.136,0.02l0.136,0.019l0.139,0.019l0.139,0.018l0.141,0.017l0.143,0.016l0.144,0.016l0.145,0.015l0.147,0.014l0.149,0.014l0.149,0.013l0.151,0.012l0.153,0.011l0.154,0.011l0.156,0.011l0.157,0.01l0.158,0.009l0.16,0.008l0.161,0.008l0.162,0.007l0.164,0.007l0.166,0.006l0.167,0.006l0.168,0.004l0.17,0.005l0.171,0.004l0.173,0.003l0.174,0.003l0.174,0.002l0.356,0.003l0.362,0.001l0.178,0l0.177,-0.001l0.176,-0.002l0.174,-0.003l0.173,-0.003l0.17,-0.003l0.17,-0.005l0.167,-0.005l0.166,-0.006l0.164,-0.006l0.163,-0.008l0.161,-0.008l0.159,-0.008l0.158,-0.01l0.156,-0.01l0.155,-0.011l0.153,-0.011l0.151,-0.013l0.15,-0.013l0.148,-0.014l0.147,-0.014l0.145,-0.015l0.144,-0.016l0.142,-0.017l0.14,-0.018l0.139,-0.018l0.138,-0.019l0.136,-0.019l0.134,-0.021l0.133,-0.021l0.132,-0.022l0.13,-0.023l0.129,-0.023l0.127,-0.025l0.126,-0.025l0.124,-0.025l0.123,-0.027l0.121,-0.027l0.12,-0.028l0.119,-0.029l0.117,-0.029l0.116,-0.031l0.115,-0.031l0.113,-0.031l0.112,-0.033l0.11,-0.033l0.11,-0.034l0.108,-0.035l0.106,-0.035l0.106,-0.037l0.104,-0.037l0.103,-0.038l0.102,-0.038l0.101,-0.04l0.099,-0.04l0.098,-0.041l0.098,-0.041l0.096,-0.043l0.095,-0.043l0.094,-0.044l0.092,-0.045l0.092,-0.046l0.091,-0.046l0.09,-0.047l0.089,-0.048l0.088,-0.049l0.087,-0.05l0.086,-0.051l0.085,-0.051l0.085,-0.052l0.083,-0.054l0.083,-0.054l0.082,-0.055l0.081,-0.056l0.08,-0.057l0.08,-0.057l0.079,-0.059l0.079,-0.06l0.077,-0.061l0.077,-0.061l0.076,-0.063l0.076,-0.064l0.075,-0.065l0.075,-0.066l0.074,-0.067l0.073,-0.068l0.073,-0.069l0.073,-0.07l0.072,-0.072l0.071,-0.072l0.071,-0.074l0.071,-0.075l0.07,-0.077l0.069,-0.077l0.07,-0.079l0.069,-0.08l0.068,-0.082l0.068,-0.082l0.068,-0.084l0.067,-0.086l0.067,-0.086l0.066,-0.089l0.066,-0.089l0.066,-0.091l0.066,-0.092l0.065,-0.094l0.065,-0.095l0.064,-0.097l0.064,-0.098l0.064,-0.1l0.064,-0.101l0.063,-0.102l0.063,-0.104l0.062,-0.106l0.063,-0.107l0.062,-0.109l0.061,-0.11l0.062,-0.112l0.061,-0.114l0.061,-0.115l0.061,-0.116l0.06,-0.118l0.06,-0.12l0.06,-0.122l0.06,-0.123l0.059,-0.124l0.059,-0.126l0.061,-0.133l0.063,-0.123l0.073,-0.118l0.082,-0.111l0.092,-0.104l0.099,-0.096l0.107,-0.087l0.114,-0.078l0.12,-0.069l0.125,-0.059l0.13,-0.047l0.133,-0.038l0.136,-0.026l0.137,-0.014l0.139,-0.003l0.138,0.008Z"/><path d="M51.005,126.846l-0.345,7.111" style="fill:none;stroke:#000;stroke-width:3.35px;"/><g><path d="M62.419,118.883l20.906,-6.395" style="fill:none;stroke:#000;stroke-width:1px;"/><path d="M62.419,120.405l24.583,-1.522" style="fill:none;stroke:#000;stroke-width:1px;"/><path d="M62.419,122.024l19.607,4.822" style="fill:none;stroke:#000;stroke-width:1px;"/></g><g><path d="M18.118,111.994l0.061,0.015l20.555,6.395l0.059,0.023l0.056,0.029l0.051,0.037l0.047,0.042l0.04,0.048l0.035,0.053l0.027,0.057l0.021,0.06l0.012,0.061l0.005,0.063l-0.003,0.063l-0.011,0.062l-0.019,0.06l-0.026,0.058l-0.033,0.053l-0.04,0.049l-0.045,0.044l-0.051,0.038l-0.054,0.031l-0.059,0.024l-0.061,0.016l-0.062,0.009l-0.063,0.001l-0.063,-0.007l-0.061,-0.015l-20.555,-6.396l-0.059,-0.022l-0.056,-0.03l-0.051,-0.036l-0.047,-0.043l-0.04,-0.048l-0.035,-0.052l-0.027,-0.057l-0.021,-0.06l-0.012,-0.062l-0.005,-0.062l0.003,-0.063l0.011,-0.062l0.019,-0.061l0.026,-0.057l0.033,-0.054l0.04,-0.049l0.045,-0.043l0.051,-0.038l0.055,-0.031l0.058,-0.024l0.061,-0.016l0.062,-0.009l0.063,-0.001l0.063,0.007Z"/><path d="M38.617,119.904l0.068,0.009l0.066,0.018l0.063,0.027l0.058,0.035l0.054,0.043l0.047,0.05l0.04,0.056l0.031,0.06l0.024,0.065l0.014,0.067l0.005,0.068l-0.004,0.068l-0.014,0.067l-0.022,0.065l-0.032,0.061l-0.039,0.056l-0.046,0.05l-0.053,0.044l-0.059,0.036l-0.062,0.028l-0.066,0.018l-0.068,0.01l-0.068,0l-24.171,-1.521l-0.068,-0.009l-0.066,-0.018l-0.063,-0.027l-0.059,-0.035l-0.053,-0.043l-0.047,-0.05l-0.04,-0.055l-0.032,-0.061l-0.023,-0.064l-0.014,-0.067l-0.005,-0.069l0.004,-0.068l0.013,-0.067l0.023,-0.065l0.031,-0.061l0.039,-0.056l0.047,-0.05l0.053,-0.044l0.058,-0.036l0.063,-0.027l0.066,-0.019l0.067,-0.01l0.069,0l24.171,1.521Z"/><path d="M38.644,121.526l0.06,0.011l0.058,0.018l0.055,0.024l0.052,0.031l0.048,0.038l0.043,0.042l0.037,0.048l0.032,0.052l0.025,0.055l0.018,0.058l0.011,0.059l0.004,0.061l-0.003,0.06l-0.011,0.06l-0.018,0.058l-0.025,0.055l-0.031,0.052l-0.037,0.048l-0.043,0.043l-0.047,0.037l-0.052,0.032l-0.055,0.025l-0.058,0.018l-19.278,4.822l-0.059,0.011l-0.061,0.004l-0.06,-0.004l-0.06,-0.01l-0.058,-0.018l-0.055,-0.025l-0.052,-0.031l-0.048,-0.037l-0.043,-0.043l-0.038,-0.048l-0.031,-0.051l-0.025,-0.055l-0.018,-0.058l-0.012,-0.06l-0.003,-0.06l0.003,-0.061l0.011,-0.059l0.018,-0.058l0.024,-0.056l0.031,-0.052l0.038,-0.047l0.042,-0.043l0.048,-0.038l0.052,-0.032l0.055,-0.025l0.058,-0.018l19.277,-4.821l0.06,-0.012l0.06,-0.003l0.061,0.003Z"/></g><path d="M29.215,145.543l18.804,6.966l5.953,0.004l18.841,-6.249l-1.678,19.881l-17.149,-8.441l-5.959,-0.042l-17.006,8.496l-1.806,-20.615Z"/><path d="M55.096,150.889c0,-1.1 -0.893,-1.993 -1.993,-1.993l-3.986,0c-1.1,0 -1.993,0.893 -1.993,1.993c-1.555,2.893 -1.444,5.668 0,8.346c0,1.1 0.893,1.993 1.993,1.993l3.986,0c1.1,0 1.993,-0.893 1.993,-1.993c1.138,-2.84 1.289,-5.63 0,-8.346Z"/><path d="M7.809,81.66l7.694,23.161l6.061,-7.947l-13.755,-15.214Z"/><path d="M93.97,83.429l-7.694,23.161l-6.061,-7.947l13.755,-15.214Z"/><path d="M28.115,88.44l8.901,10.602l1.976,-9.678l4.906,11.808l3.892,-9.697l4.628,12.322l3.896,-13.004l1.304,7.027l8.007,-8.242l-1.687,9.27l9.484,-9.854c0,0 -10.59,-6.651 -22.824,-6.22c-18.091,0.636 -22.483,5.666 -22.483,5.666Z" style="fill:#818181;"/></g></g></svg>